SplineFontDB: 3.0
FontName: LisuTzimu
FullName: LisuTzimu
FamilyName: LisuTzimu
Weight: Book
Copyright: Copyright (c) 1998-2009 by David Morse; licensed under the SIL Open Font License with Reserved Font Name "LisuTzimu".
Version: 2.002
ItalicAngle: 0
UnderlinePosition: -307
UnderlineWidth: 82
Ascent: 1638
Descent: 410
sfntRevision: 0x00020083
LayerCount: 2
Layer: 0 1 "Back"  1
Layer: 1 1 "Fore"  0
XUID: [1021 646 1676337484 2527022]
FSType: 0
OS2Version: 3
OS2_WeightWidthSlopeOnly: 0
OS2_UseTypoMetrics: 1
CreationTime: 1244570400
ModificationTime: 1378801752
PfmFamily: 17
TTFWeight: 400
TTFWidth: 5
LineGap: 0
VLineGap: 0
Panose: 2 11 6 4 2 2 3 8 2 1
OS2TypoAscent: 1638
OS2TypoAOffset: 0
OS2TypoDescent: -410
OS2TypoDOffset: 0
OS2TypoLinegap: 0
OS2WinAscent: 1638
OS2WinAOffset: 0
OS2WinDescent: 410
OS2WinDOffset: 0
HheadAscent: 1638
HheadAOffset: 0
HheadDescent: -410
HheadDOffset: 0
OS2SubXSize: 1434
OS2SubYSize: 1331
OS2SubXOff: 0
OS2SubYOff: 293
OS2SupXSize: 1434
OS2SupYSize: 1331
OS2SupXOff: 0
OS2SupYOff: 928
OS2StrikeYSize: 102
OS2StrikeYPos: 530
OS2Vendor: 'PYRS'
OS2CodePages: 00040001.00000000
OS2UnicodeRanges: 80000023.00016000.00000000.00000000
Lookup: 258 0 0 "'kern' Horizontal Kerning in Latin lookup 0"  {"'kern' Horizontal Kerning in Latin lookup 0 subtable"  } ['kern' ('latn' <'dflt' > ) ]
DEI: 91125
KernClass2: 4+ 4 "'kern' Horizontal Kerning in Latin lookup 0 subtable"
 28 macronlowmod uniA4FA uniA4FB
 63 uniA4D1 uniA4D4 uniA4DD uniA4E6 uniA4E9 uniA4EA uniA4EC uniA4EF
 9 afii57929
 31 uniA4D5 uniA4E1 uniA4E5 uniA4EE
 5 space
 44 macronlowmod uniA4F8 uniA4F9 uniA4FA uniA4FB
 9 afii57929
 0 {} -148 {} 0 {} 0 {} 0 {} 0 {} -164 {} 0 {} 0 {} 0 {} -164 {} 0 {} 0 {} 0 {} 0 {} -164 {}
TtTable: prep
PUSHW_1
 0
CALL
EndTTInstrs
TtTable: fpgm
PUSHW_1
 0
FDEF
MPPEM
PUSHW_1
 3
LT
IF
PUSHB_2
 1
 1
INSTCTRL
EIF
PUSHW_1
 511
SCANCTRL
PUSHW_1
 68
SCVTCI
PUSHW_2
 3
 3
SDS
SDB
ENDF
PUSHW_1
 1
FDEF
DUP
DUP
RCVT
ROUND[Black]
WCVTP
PUSHB_1
 1
ADD
ENDF
PUSHW_1
 2
FDEF

StartChar: .notdef
Encoding: 166 -1 0
Width: 1024
Flags: W
LayerCount: 2
Fore
SplineSet
129 0 m 1,0,-1
 129 1638 l 1,1,-1
 897 1638 l 1,2,-1
 897 0 l 1,3,-1
 129 0 l 1,0,-1
256 129 m 1,4,-1
 768 129 l 1,5,-1
 768 1511 l 1,6,-1
 256 1511 l 1,7,-1
 256 129 l 1,4,-1
EndSplineSet
EndChar

StartChar: exclam
Encoding: 1 33 4
Width: 674
Flags: W
LayerCount: 2
Fore
SplineSet
492 1032 m 0,0,1
 492 993 492 993 471 940 c 0,2,3
 446 874 446 874 442 850 c 2,4,-1
 371 434 l 1,5,-1
 285 434 l 1,6,-1
 213 850 l 2,7,8
 209 872 209 872 184 934 c 1,9,10
 166 983 166 983 166 1028 c 0,11,12
 166 1087 166 1087 217 1123 c 128,-1,13
 268 1159 268 1159 330 1159 c 0,14,15
 389 1159 389 1159 440.5 1124.5 c 128,-1,16
 492 1090 492 1090 492 1032 c 0,0,1
453 72 m 0,17,18
 453 25 453 25 414 -10 c 128,-1,19
 375 -45 375 -45 328 -45 c 256,20,21
 281 -45 281 -45 242 -10 c 128,-1,22
 203 25 203 25 203 72 c 0,23,24
 203 121 203 121 241 155.5 c 128,-1,25
 279 190 279 190 328 190 c 256,26,27
 377 190 377 190 415 155.5 c 128,-1,28
 453 121 453 121 453 72 c 0,17,18
EndSplineSet
EndChar

StartChar: quotedbl
Encoding: 2 34 5
Width: 717
Flags: W
LayerCount: 2
Fore
SplineSet
606 1001 m 2,0,1
 606 954 606 954 575 801 c 1,2,-1
 471 801 l 1,3,4
 440 954 440 954 440 1001 c 2,5,-1
 440 1204 l 1,6,-1
 606 1204 l 1,7,-1
 606 1001 l 2,0,1
281 1001 m 2,8,9
 281 952 281 952 252 801 c 1,10,-1
 145 801 l 1,11,12
 115 954 115 954 115 1001 c 2,13,-1
 115 1204 l 1,14,-1
 281 1204 l 1,15,-1
 281 1001 l 2,8,9
EndSplineSet
EndChar

StartChar: numbersign
Encoding: 3 35 6
Width: 1006
Flags: W
LayerCount: 2
Fore
SplineSet
905 291 m 1,0,-1
 682 291 l 1,1,-1
 625 -18 l 1,2,-1
 485 -18 l 1,3,-1
 545 291 l 1,4,-1
 360 291 l 1,5,-1
 295 -18 l 1,6,-1
 150 -18 l 1,7,-1
 215 291 l 1,8,-1
 100 291 l 1,9,-1
 100 434 l 1,10,-1
 246 434 l 1,11,-1
 291 649 l 1,12,-1
 100 649 l 1,13,-1
 100 791 l 1,14,-1
 317 791 l 1,15,-1
 379 1100 l 1,16,-1
 520 1100 l 1,17,-1
 459 791 l 1,18,-1
 645 791 l 1,19,-1
 709 1100 l 1,20,-1
 846 1100 l 1,21,-1
 786 791 l 1,22,-1
 905 791 l 1,23,-1
 905 649 l 1,24,-1
 760 649 l 1,25,-1
 711 428 l 1,26,-1
 905 428 l 1,27,-1
 905 291 l 1,0,-1
616 649 m 1,28,-1
 428 649 l 1,29,-1
 385 428 l 1,30,-1
 571 428 l 1,31,-1
 616 649 l 1,28,-1
EndSplineSet
EndChar

StartChar: dollar
Encoding: 4 36 7
Width: 901
Flags: W
LayerCount: 2
Fore
SplineSet
815 313 m 0,0,1
 815 184 815 184 730 89 c 128,-1,2
 645 -6 645 -6 516 -23 c 1,3,-1
 516 -156 l 1,4,-1
 406 -156 l 1,5,-1
 406 -27 l 1,6,7
 119 25 119 25 100 322 c 1,8,-1
 258 350 l 1,9,10
 268 184 268 184 406 117 c 1,11,-1
 406 496 l 1,12,13
 121 563 121 563 121 788 c 0,14,15
 121 913 121 913 203 997 c 1,16,17
 279 1077 279 1077 406 1098 c 1,18,-1
 406 1159 l 1,19,-1
 516 1159 l 1,20,-1
 516 1098 l 1,21,22
 743 1059 743 1059 795 807 c 1,23,-1
 631 782 l 1,24,25
 618 881 618 881 516 956 c 1,26,-1
 516 635 l 1,27,28
 815 557 815 557 815 313 c 0,0,1
406 657 m 1,29,-1
 406 952 l 1,30,31
 283 905 283 905 283 797 c 0,32,33
 283 717 283 717 406 657 c 1,29,-1
651 303 m 0,34,35
 651 410 651 410 516 469 c 1,36,-1
 516 117 l 1,37,38
 651 184 651 184 651 303 c 0,34,35
EndSplineSet
EndChar

StartChar: percent
Encoding: 5 37 8
Width: 1348
Flags: W
LayerCount: 2
Fore
SplineSet
1262 254 m 256,0,1
 1262 137 1262 137 1198 53 c 0,2,3
 1128 -39 1128 -39 1016 -39 c 0,4,5
 901 -39 901 -39 836 57 c 0,6,7
 778 141 778 141 778 262 c 0,8,9
 778 375 778 375 840 457 c 1,10,11
 907 549 907 549 1016 549 c 0,12,13
 1128 549 1128 549 1198 455 c 1,14,15
 1262 371 1262 371 1262 254 c 256,0,1
1053 1100 m 1,16,-1
 461 -39 l 1,17,-1
 311 -39 l 1,18,-1
 903 1100 l 1,19,-1
 1053 1100 l 1,16,-1
586 803 m 256,20,21
 586 686 586 686 522 602 c 0,22,23
 453 510 453 510 340 510 c 0,24,25
 223 510 223 510 158 606 c 1,26,27
 100 688 100 688 100 811 c 0,28,29
 100 930 100 930 160 1010 c 1,30,31
 225 1100 225 1100 340 1100 c 0,32,33
 453 1100 453 1100 522 1006 c 0,34,35
 586 920 586 920 586 803 c 256,20,21
1116 260 m 0,36,37
 1116 424 1116 424 1020 424 c 0,38,39
 926 424 926 424 926 258 c 0,40,41
 926 84 926 84 1022 84 c 0,42,43
 1116 84 1116 84 1116 260 c 0,36,37
436 791 m 0,44,45
 436 975 436 975 344 975 c 0,46,47
 248 975 248 975 248 805 c 0,48,49
 248 633 248 633 344 633 c 0,50,51
 436 633 436 633 436 791 c 0,44,45
EndSplineSet
EndChar

StartChar: ampersand
Encoding: 6 38 9
Width: 1051
Flags: W
LayerCount: 2
Fore
SplineSet
1004 106 m 1,0,-1
 899 -18 l 1,1,2
 817 35 817 35 737 123 c 1,3,4
 600 -6 600 -6 444 -6 c 0,5,6
 307 -6 307 -6 205.5 86 c 128,-1,7
 104 178 104 178 104 313 c 0,8,9
 104 494 104 494 338 631 c 1,10,11
 231 754 231 754 231 850 c 0,12,13
 231 956 231 956 314 1028 c 128,-1,14
 397 1100 397 1100 504 1100 c 0,15,16
 604 1100 604 1100 681 1029 c 128,-1,17
 758 958 758 958 758 860 c 0,18,19
 758 717 758 717 571 602 c 1,20,-1
 727 401 l 1,21,22
 756 485 756 485 768 541 c 1,23,-1
 932 502 l 1,24,25
 897 365 897 365 838 262 c 1,26,27
 911 172 911 172 1004 106 c 1,0,-1
594 856 m 0,28,29
 594 897 594 897 565.5 927.5 c 128,-1,30
 537 958 537 958 496 958 c 0,31,32
 457 958 457 958 426 929.5 c 128,-1,33
 395 901 395 901 395 862 c 0,34,35
 395 809 395 809 483 715 c 1,36,37
 594 774 594 774 594 856 c 0,28,29
637 248 m 1,38,-1
 426 514 l 1,39,40
 274 424 274 424 274 322 c 0,41,42
 274 250 274 250 323.5 194.5 c 128,-1,43
 373 139 373 139 444 139 c 0,44,45
 549 139 549 139 637 248 c 1,38,-1
EndSplineSet
EndChar

StartChar: quotesingle
Encoding: 7 39 10
Width: 392
Flags: W
LayerCount: 2
Fore
SplineSet
279 1001 m 2,0,1
 279 954 279 954 248 801 c 1,2,-1
 144 801 l 1,3,4
 113 954 113 954 113 1001 c 2,5,-1
 113 1204 l 1,6,-1
 279 1204 l 1,7,-1
 279 1001 l 2,0,1
EndSplineSet
EndChar

StartChar: parenleft
Encoding: 8 40 11
Width: 731
Flags: W
LayerCount: 2
Fore
SplineSet
588 -238 m 1,0,-1
 477 -238 l 1,1,2
 203 158 203 158 203 520 c 0,3,4
 203 850 203 850 477 1260 c 1,5,-1
 586 1260 l 1,6,7
 367 825 367 825 367 510 c 0,8,9
 367 172 367 172 588 -238 c 1,0,-1
EndSplineSet
EndChar

StartChar: parenright
Encoding: 9 41 12
Width: 731
Flags: W
LayerCount: 2
Fore
SplineSet
573 512 m 0,0,1
 573 158 573 158 301 -238 c 1,2,-1
 190 -238 l 1,3,4
 412 174 412 174 412 510 c 0,5,6
 412 844 412 844 188 1260 c 1,7,-1
 301 1260 l 1,8,9
 573 850 573 850 573 512 c 0,0,1
EndSplineSet
EndChar

StartChar: asterisk
Encoding: 10 42 13
Width: 754
Flags: W
LayerCount: 2
Fore
SplineSet
678 1028 m 1,0,-1
 647 940 l 1,1,2
 565 907 565 907 477 891 c 1,3,4
 541 813 541 813 594 758 c 1,5,-1
 561 670 l 1,6,-1
 473 676 l 1,7,8
 422 739 422 739 379 821 c 1,9,10
 348 770 348 770 279 674 c 1,11,-1
 180 655 l 1,12,-1
 164 756 l 1,13,14
 195 793 195 793 279 891 c 1,15,16
 188 911 188 911 106 934 c 1,17,-1
 72 1028 l 1,18,-1
 154 1071 l 1,19,20
 215 1051 215 1051 313 1012 c 1,21,22
 307 1092 307 1092 305 1186 c 1,23,-1
 381 1257 l 1,24,-1
 449 1188 l 1,25,26
 444 1104 444 1104 436 1008 c 1,27,28
 508 1040 508 1040 602 1073 c 1,29,-1
 678 1028 l 1,0,-1
EndSplineSet
EndChar

StartChar: plus
Encoding: 11 43 14
Width: 940
Flags: W
LayerCount: 2
Fore
SplineSet
848 502 m 1,0,-1
 567 502 l 1,1,-1
 567 219 l 1,2,-1
 414 219 l 1,3,-1
 414 502 l 1,4,-1
 133 502 l 1,5,-1
 133 651 l 1,6,-1
 414 651 l 1,7,-1
 414 932 l 1,8,-1
 567 932 l 1,9,-1
 567 651 l 1,10,-1
 848 651 l 1,11,-1
 848 502 l 1,0,-1
EndSplineSet
EndChar

StartChar: hyphen
Encoding: 13 45 16
Width: 885
Flags: W
LayerCount: 2
Fore
SplineSet
721 434 m 1,0,-1
 164 434 l 1,1,-1
 164 606 l 1,2,-1
 721 606 l 1,3,-1
 721 434 l 1,0,-1
EndSplineSet
EndChar

StartChar: slash
Encoding: 15 47 18
Width: 737
Flags: W
LayerCount: 2
Fore
SplineSet
700 1212 m 1,0,-1
 164 -186 l 1,1,-1
 49 -152 l 1,2,-1
 580 1233 l 1,3,-1
 700 1212 l 1,0,-1
EndSplineSet
EndChar

StartChar: zero
Encoding: 16 48 19
Width: 971
Flags: W
LayerCount: 2
Fore
SplineSet
838 537 m 0,0,1
 838 324 838 324 768 178 c 0,2,3
 674 -16 674 -16 487 -16 c 0,4,5
 299 -16 299 -16 205 180 c 0,6,7
 133 330 133 330 133 541 c 0,8,9
 133 754 133 754 205 905 c 0,10,11
 299 1104 299 1104 485 1104 c 0,12,13
 674 1104 674 1104 768 903 c 0,14,15
 838 754 838 754 838 537 c 0,0,1
682 541 m 0,16,17
 682 948 682 948 483 948 c 0,18,19
 291 948 291 948 291 567 c 0,20,21
 291 137 291 137 485 137 c 0,22,23
 682 137 682 137 682 541 c 0,16,17
EndSplineSet
EndChar

StartChar: one
Encoding: 17 49 20
Width: 971
Flags: W
LayerCount: 2
Fore
SplineSet
635 4 m 1,0,-1
 479 4 l 1,1,-1
 479 811 l 1,2,3
 358 711 358 711 233 657 c 1,4,-1
 233 817 l 1,5,6
 440 926 440 926 508 1087 c 1,7,-1
 635 1087 l 1,8,-1
 635 4 l 1,0,-1
EndSplineSet
EndChar

StartChar: two
Encoding: 18 50 21
Width: 971
Flags: W
LayerCount: 2
Fore
SplineSet
848 4 m 1,0,-1
 133 4 l 1,1,-1
 133 106 l 2,2,3
 133 190 133 190 276 317 c 1,4,5
 367 393 367 393 543 549 c 1,6,7
 686 680 686 680 686 795 c 0,8,9
 686 862 686 862 632 904 c 128,-1,10
 578 946 578 946 508 946 c 0,11,12
 422 946 422 946 365 901 c 1,13,14
 301 852 301 852 293 770 c 1,15,-1
 141 784 l 1,16,17
 156 930 156 930 259 1015 c 128,-1,18
 362 1100 362 1100 510 1100 c 0,19,20
 643 1100 643 1100 743 1020 c 1,21,22
 848 934 848 934 848 803 c 0,23,24
 848 657 848 657 729 518 c 0,25,26
 682 463 682 463 498 299 c 0,27,28
 434 242 434 242 348 162 c 1,29,-1
 848 162 l 1,30,-1
 848 4 l 1,0,-1
EndSplineSet
EndChar

StartChar: three
Encoding: 19 51 22
Width: 971
Flags: W
LayerCount: 2
Fore
SplineSet
858 334 m 0,0,1
 858 186 858 186 750.5 86 c 128,-1,2
 643 -14 643 -14 496 -14 c 0,3,4
 350 -14 350 -14 256 77 c 128,-1,5
 162 168 162 168 147 313 c 1,6,-1
 311 338 l 1,7,8
 324 137 324 137 496 137 c 0,9,10
 575 137 575 137 635.5 192.5 c 128,-1,11
 696 248 696 248 696 328 c 256,12,13
 696 408 696 408 641 457 c 128,-1,14
 586 506 586 506 504 506 c 0,15,16
 487 506 487 506 455.5 504 c 128,-1,17
 424 502 424 502 408 502 c 1,18,-1
 408 635 l 1,19,20
 434 633 434 633 483 633 c 0,21,22
 559 633 559 633 604 683 c 128,-1,23
 649 733 649 733 649 811 c 0,24,25
 649 870 649 870 601 908 c 128,-1,26
 553 946 553 946 492 946 c 0,27,28
 332 946 332 946 295 788 c 1,29,-1
 150 807 l 1,30,31
 174 934 174 934 268 1017 c 128,-1,32
 362 1100 362 1100 489 1100 c 0,33,34
 614 1100 614 1100 711.5 1016 c 128,-1,35
 809 932 809 932 809 807 c 0,36,37
 809 680 809 680 696 588 c 1,38,39
 858 498 858 498 858 334 c 0,0,1
EndSplineSet
EndChar

StartChar: four
Encoding: 20 52 23
Width: 971
Flags: W
LayerCount: 2
Fore
SplineSet
893 248 m 1,0,-1
 768 248 l 1,1,-1
 768 4 l 1,2,-1
 610 4 l 1,3,-1
 610 248 l 1,4,-1
 123 248 l 1,5,-1
 123 393 l 1,6,-1
 623 1087 l 1,7,-1
 768 1087 l 1,8,-1
 768 406 l 1,9,-1
 893 406 l 1,10,-1
 893 248 l 1,0,-1
610 406 m 1,11,-1
 610 819 l 1,12,-1
 309 406 l 1,13,-1
 610 406 l 1,11,-1
EndSplineSet
EndChar

StartChar: five
Encoding: 21 53 24
Width: 971
Flags: W
LayerCount: 2
Fore
SplineSet
831 367 m 0,0,1
 831 201 831 201 730 88 c 128,-1,2
 629 -25 629 -25 465 -25 c 0,3,4
 236 -25 236 -25 133 211 c 1,5,-1
 293 254 l 1,6,7
 313 197 313 197 365.5 160 c 128,-1,8
 418 123 418 123 477 123 c 0,9,10
 567 123 567 123 623 197 c 0,11,12
 674 264 674 264 674 356 c 0,13,14
 674 453 674 453 618.5 523.5 c 128,-1,15
 563 594 563 594 469 594 c 256,16,17
 375 594 375 594 297 498 c 1,18,-1
 147 518 l 1,19,-1
 250 1090 l 1,20,-1
 793 1090 l 1,21,-1
 793 930 l 1,22,-1
 379 930 l 1,23,-1
 338 705 l 1,24,25
 440 750 440 750 504 750 c 0,26,27
 653 750 653 750 745 629 c 1,28,29
 831 518 831 518 831 367 c 0,0,1
EndSplineSet
EndChar

StartChar: six
Encoding: 22 54 25
Width: 971
Flags: W
LayerCount: 2
Fore
SplineSet
846 336 m 0,0,1
 846 180 846 180 754 81 c 128,-1,2
 662 -18 662 -18 508 -18 c 0,3,4
 307 -18 307 -18 211 141 c 0,5,6
 133 270 133 270 133 485 c 0,7,8
 133 725 133 725 207 887 c 0,9,10
 307 1106 307 1106 518 1106 c 0,11,12
 633 1106 633 1106 716 1042.5 c 128,-1,13
 799 979 799 979 829 868 c 1,14,-1
 674 825 l 1,15,16
 659 881 659 881 616 916.5 c 128,-1,17
 573 952 573 952 518 952 c 0,18,19
 414 952 414 952 352 823 c 0,20,21
 305 725 305 725 297 602 c 1,22,23
 391 692 391 692 512 692 c 0,24,25
 662 692 662 692 754 589.5 c 128,-1,26
 846 487 846 487 846 336 c 0,0,1
686 340 m 0,27,28
 686 422 686 422 634 481.5 c 128,-1,29
 582 541 582 541 502 541 c 0,30,31
 420 541 420 541 366.5 480.5 c 128,-1,32
 313 420 313 420 313 336 c 0,33,34
 313 254 313 254 365.5 192.5 c 128,-1,35
 418 131 418 131 498 131 c 0,36,37
 582 131 582 131 634 192.5 c 128,-1,38
 686 254 686 254 686 340 c 0,27,28
EndSplineSet
EndChar

StartChar: seven
Encoding: 23 55 26
Width: 971
Flags: W
LayerCount: 2
Fore
SplineSet
825 967 m 1,0,1
 479 528 479 528 436 0 c 1,2,-1
 276 0 l 1,3,4
 317 524 317 524 606 926 c 1,5,-1
 133 926 l 1,6,-1
 133 1087 l 1,7,-1
 825 1087 l 1,8,-1
 825 967 l 1,0,1
EndSplineSet
EndChar

StartChar: eight
Encoding: 24 56 27
Width: 971
Flags: W
LayerCount: 2
Fore
SplineSet
846 299 m 0,0,1
 846 160 846 160 738.5 70 c 128,-1,2
 631 -20 631 -20 489 -20 c 0,3,4
 348 -20 348 -20 244 70 c 1,5,6
 133 164 133 164 133 303 c 0,7,8
 133 487 133 487 295 588 c 1,9,10
 178 672 178 672 178 815 c 0,11,12
 178 940 178 940 270 1021 c 128,-1,13
 362 1102 362 1102 487 1102 c 0,14,15
 616 1102 616 1102 709.5 1020 c 128,-1,16
 803 938 803 938 803 811 c 0,17,18
 803 682 803 682 688 582 c 1,19,20
 846 483 846 483 846 299 c 0,0,1
643 805 m 0,21,22
 643 870 643 870 599 915.5 c 128,-1,23
 555 961 555 961 489 961 c 0,24,25
 424 961 424 961 379 915.5 c 128,-1,26
 334 870 334 870 334 805 c 0,27,28
 334 743 334 743 379 697 c 128,-1,29
 424 651 424 651 485 651 c 0,30,31
 551 651 551 651 597 695 c 128,-1,32
 643 739 643 739 643 805 c 0,21,22
686 311 m 0,33,34
 686 395 686 395 628.5 452.5 c 128,-1,35
 571 510 571 510 487 510 c 0,36,37
 406 510 406 510 348.5 453.5 c 128,-1,38
 291 397 291 397 291 315 c 256,39,40
 291 233 291 233 350.5 177 c 128,-1,41
 410 121 410 121 492 121 c 0,42,43
 569 121 569 121 627.5 177 c 128,-1,44
 686 233 686 233 686 311 c 0,33,34
EndSplineSet
EndChar

StartChar: nine
Encoding: 25 57 28
Width: 971
Flags: W
LayerCount: 2
Fore
SplineSet
844 571 m 0,0,1
 844 -37 844 -37 459 -37 c 0,2,3
 338 -37 338 -37 252 30.5 c 128,-1,4
 166 98 166 98 154 215 c 1,5,-1
 303 231 l 1,6,7
 309 180 309 180 352 145.5 c 128,-1,8
 395 111 395 111 446 111 c 0,9,10
 563 111 563 111 633 231 c 1,11,12
 686 326 686 326 686 459 c 2,13,-1
 686 483 l 1,14,15
 606 389 606 389 457 389 c 0,16,17
 311 389 311 389 222 489.5 c 128,-1,18
 133 590 133 590 133 735 c 0,19,20
 133 885 133 885 228.5 994.5 c 128,-1,21
 324 1104 324 1104 471 1104 c 0,22,23
 676 1104 676 1104 770 930 c 0,24,25
 844 795 844 795 844 571 c 0,0,1
664 741 m 0,26,27
 664 829 664 829 609.5 893.5 c 128,-1,28
 555 958 555 958 469 958 c 0,29,30
 387 958 387 958 337 893.5 c 128,-1,31
 287 829 287 829 287 745 c 0,32,33
 287 657 287 657 338 593.5 c 128,-1,34
 389 530 389 530 475 530 c 0,35,36
 555 530 555 530 609.5 594.5 c 128,-1,37
 664 659 664 659 664 741 c 0,26,27
EndSplineSet
EndChar

StartChar: less
Encoding: 28 60 31
Width: 930
Flags: W
LayerCount: 2
Fore
SplineSet
825 176 m 1,0,-1
 111 469 l 1,1,-1
 111 600 l 1,2,-1
 825 889 l 1,3,-1
 825 735 l 1,4,-1
 309 535 l 1,5,-1
 825 330 l 1,6,-1
 825 176 l 1,0,-1
EndSplineSet
EndChar

StartChar: greater
Encoding: 30 62 33
Width: 963
Flags: W
LayerCount: 2
Fore
SplineSet
848 469 m 1,0,-1
 133 176 l 1,1,-1
 133 328 l 1,2,-1
 647 535 l 1,3,-1
 133 735 l 1,4,-1
 133 889 l 1,5,-1
 848 600 l 1,6,-1
 848 469 l 1,0,-1
EndSplineSet
EndChar

StartChar: question
Encoding: 31 63 34
Width: 936
Flags: W
LayerCount: 2
Fore
SplineSet
809 877 m 0,0,1
 809 731 809 731 739 655 c 1,2,3
 694 618 694 618 608 543 c 1,4,5
 537 475 537 475 535 338 c 1,6,-1
 391 338 l 1,7,8
 389 362 389 362 389 387 c 0,9,10
 389 496 389 496 459 578 c 1,11,12
 502 623 502 623 588 715 c 1,13,14
 657 791 657 791 657 870 c 0,15,16
 657 942 657 942 600 991 c 128,-1,17
 543 1040 543 1040 469 1040 c 0,18,19
 305 1040 305 1040 274 829 c 1,20,-1
 123 848 l 1,21,22
 143 997 143 997 231 1085.5 c 128,-1,23
 319 1174 319 1174 467 1174 c 0,24,25
 602 1174 602 1174 700 1094 c 1,26,27
 809 1008 809 1008 809 877 c 0,0,1
573 92 m 256,28,29
 573 49 573 49 540.5 17.5 c 128,-1,30
 508 -14 508 -14 465 -14 c 0,31,32
 424 -14 424 -14 391 18.5 c 128,-1,33
 358 51 358 51 358 92 c 256,34,35
 358 133 358 133 391 166 c 128,-1,36
 424 199 424 199 465 199 c 0,37,38
 508 199 508 199 540.5 167 c 128,-1,39
 573 135 573 135 573 92 c 256,28,29
EndSplineSet
EndChar

StartChar: at
Encoding: 32 64 35
Width: 1559
Flags: W
LayerCount: 2
Fore
SplineSet
1405 203 m 1,0,1
 1323 43 1323 43 1159 -41 c 0,2,3
 1008 -119 1008 -119 817 -119 c 0,4,5
 528 -119 528 -119 350 33 c 1,6,7
 160 193 160 193 160 477 c 0,8,9
 160 768 160 768 348.5 961.5 c 128,-1,10
 537 1155 537 1155 827 1155 c 0,11,12
 1044 1155 1044 1155 1204 1001.5 c 128,-1,13
 1364 848 1364 848 1364 633 c 0,14,15
 1364 453 1364 453 1257 311 c 1,16,17
 1139 158 1139 158 965 158 c 0,18,19
 881 158 881 158 827 240 c 1,20,21
 741 158 741 158 647 158 c 0,22,23
 537 158 537 158 467 258 c 0,24,25
 403 348 403 348 403 463 c 0,26,27
 403 621 403 621 496 748 c 1,28,29
 596 889 596 889 750 889 c 0,30,31
 844 889 844 889 932 797 c 1,32,-1
 950 905 l 1,33,-1
 1044 985 l 1,34,35
 975 1032 975 1032 922 1032 c 0,36,37
 901 1032 901 1032 862 1029 c 128,-1,38
 823 1026 823 1026 803 1026 c 0,39,40
 575 1026 575 1026 430 870.5 c 128,-1,41
 285 715 285 715 285 485 c 0,42,43
 285 252 285 252 438 127 c 0,44,45
 580 10 580 10 817 10 c 0,46,47
 1114 10 1114 10 1257 203 c 1,48,-1
 1405 203 l 1,0,1
1237 637 m 0,49,50
 1237 715 1237 715 1184 815 c 0,51,52
 1137 905 1137 905 1073 969 c 1,53,54
 1059 907 1059 907 1053 788 c 0,55,56
 1047 664 1047 664 1034 606 c 1,57,58
 1016 516 1016 516 979 305 c 1,59,-1
 1014 291 l 1,60,61
 1118 328 1118 328 1180 428 c 1,62,63
 1237 522 1237 522 1237 637 c 0,49,50
889 594 m 0,64,65
 889 659 889 659 856 707 c 0,66,67
 819 762 819 762 758 762 c 0,68,69
 657 762 657 762 600 653 c 0,70,71
 553 565 553 565 553 453 c 0,72,73
 553 389 553 389 580 342 c 0,74,75
 612 285 612 285 672 285 c 0,76,77
 774 285 774 285 836 393 c 1,78,79
 889 483 889 483 889 594 c 0,64,65
EndSplineSet
EndChar

StartChar: A
Encoding: 33 65 36
Width: 946
Flags: W
LayerCount: 2
Fore
SplineSet
897 166 m 1,0,-1
 780 166 l 1,1,-1
 719 313 l 1,2,-1
 377 313 l 1,3,-1
 324 166 l 1,4,-1
 205 166 l 1,5,-1
 477 926 l 1,6,-1
 600 926 l 1,7,-1
 897 166 l 1,0,-1
682 414 m 1,8,-1
 539 778 l 1,9,10
 475 594 475 594 416 414 c 1,11,-1
 682 414 l 1,8,-1
EndSplineSet
EndChar

StartChar: B
Encoding: 34 66 37
Width: 850
Flags: W
LayerCount: 2
Fore
SplineSet
778 383 m 0,0,1
 778 166 778 166 506 166 c 2,2,-1
 229 166 l 1,3,-1
 229 926 l 1,4,-1
 485 926 l 2,5,6
 590 926 590 926 657 877 c 1,7,8
 735 823 735 823 735 723 c 0,9,10
 735 625 735 625 653 569 c 1,11,12
 778 500 778 500 778 383 c 0,0,1
631 715 m 0,13,14
 631 766 631 766 575 793 c 1,15,16
 532 811 532 811 475 811 c 2,17,-1
 342 811 l 1,18,-1
 342 614 l 1,19,-1
 477 614 l 2,20,21
 631 614 631 614 631 715 c 0,13,14
666 387 m 0,22,23
 666 502 666 502 477 502 c 2,24,-1
 342 502 l 1,25,-1
 342 276 l 1,26,-1
 492 276 l 2,27,28
 666 276 666 276 666 387 c 0,22,23
EndSplineSet
EndChar

StartChar: C
Encoding: 35 67 38
Width: 897
Flags: W
LayerCount: 2
Fore
SplineSet
831 381 m 1,0,1
 801 279 801 279 729 219 c 1,2,3
 655 154 655 154 553 154 c 0,4,5
 238 154 238 154 238 547 c 0,6,7
 238 709 238 709 311 815 c 0,8,9
 395 936 395 936 551 936 c 0,10,11
 643 936 643 936 721 880.5 c 128,-1,12
 799 825 799 825 825 737 c 1,13,-1
 717 715 l 1,14,15
 672 827 672 827 555 827 c 0,16,17
 350 827 350 827 350 541 c 0,18,19
 350 428 350 428 389 354 c 1,20,21
 440 262 440 262 545 262 c 0,22,23
 608 262 608 262 655 303 c 128,-1,24
 702 344 702 344 721 410 c 1,25,-1
 831 381 l 1,0,1
EndSplineSet
EndChar

StartChar: D
Encoding: 36 68 39
Width: 885
Flags: W
LayerCount: 2
Fore
SplineSet
813 543 m 256,0,1
 813 371 813 371 723 268.5 c 128,-1,2
 633 166 633 166 463 166 c 2,3,-1
 244 166 l 1,4,-1
 244 926 l 1,5,-1
 451 926 l 2,6,7
 621 926 621 926 717 820.5 c 128,-1,8
 813 715 813 715 813 543 c 256,0,1
705 539 m 0,9,10
 705 666 705 666 639 739.5 c 128,-1,11
 573 813 573 813 451 813 c 2,12,-1
 354 813 l 1,13,-1
 354 276 l 1,14,-1
 451 276 l 2,15,16
 569 276 569 276 637 348 c 128,-1,17
 705 420 705 420 705 539 c 0,9,10
EndSplineSet
EndChar

StartChar: E
Encoding: 37 69 40
Width: 850
Flags: W
LayerCount: 2
Fore
SplineSet
766 166 m 1,0,-1
 250 166 l 1,1,-1
 250 926 l 1,2,-1
 752 926 l 1,3,-1
 752 811 l 1,4,-1
 362 811 l 1,5,-1
 362 608 l 1,6,-1
 694 608 l 1,7,-1
 694 496 l 1,8,-1
 362 496 l 1,9,-1
 362 279 l 1,10,-1
 766 279 l 1,11,-1
 766 166 l 1,0,-1
EndSplineSet
EndChar

StartChar: F
Encoding: 38 70 41
Width: 799
Flags: W
LayerCount: 2
Fore
SplineSet
717 813 m 1,0,-1
 348 813 l 1,1,-1
 348 600 l 1,2,-1
 678 600 l 1,3,-1
 678 487 l 1,4,-1
 348 487 l 1,5,-1
 348 166 l 1,6,-1
 236 166 l 1,7,-1
 236 926 l 1,8,-1
 717 926 l 1,9,-1
 717 813 l 1,0,-1
EndSplineSet
EndChar

StartChar: G
Encoding: 39 71 42
Width: 971
Flags: W
LayerCount: 2
Fore
SplineSet
893 270 m 1,0,1
 745 150 745 150 590 150 c 0,2,3
 426 150 426 150 334 266 c 0,4,5
 248 373 248 373 248 543 c 256,6,7
 248 713 248 713 326 815 c 0,8,9
 414 930 414 930 578 930 c 0,10,11
 807 930 807 930 887 748 c 1,12,-1
 774 717 l 1,13,14
 715 823 715 823 588 823 c 0,15,16
 479 823 479 823 416 737 c 0,17,18
 362 662 362 662 362 547 c 0,19,20
 362 426 362 426 416 348 c 0,21,22
 479 258 479 258 596 258 c 0,23,24
 688 258 688 258 782 330 c 1,25,-1
 782 446 l 1,26,-1
 578 446 l 1,27,-1
 578 559 l 1,28,-1
 893 559 l 1,29,-1
 893 270 l 1,0,1
EndSplineSet
EndChar

StartChar: H
Encoding: 40 72 43
Width: 885
Flags: W
LayerCount: 2
Fore
SplineSet
795 166 m 1,0,-1
 682 166 l 1,1,-1
 682 500 l 1,2,-1
 356 500 l 1,3,-1
 356 166 l 1,4,-1
 246 166 l 1,5,-1
 246 926 l 1,6,-1
 356 926 l 1,7,-1
 356 610 l 1,8,-1
 682 610 l 1,9,-1
 682 926 l 1,10,-1
 795 926 l 1,11,-1
 795 166 l 1,0,-1
EndSplineSet
EndChar

StartChar: I
Encoding: 41 73 44
Width: 410
Flags: W
LayerCount: 2
Fore
SplineSet
297 166 m 1,0,-1
 186 166 l 1,1,-1
 186 926 l 1,2,-1
 297 926 l 1,3,-1
 297 166 l 1,0,-1
EndSplineSet
EndChar

StartChar: J
Encoding: 42 74 45
Width: 768
Flags: W
LayerCount: 2
Fore
SplineSet
668 406 m 2,0,1
 668 301 668 301 600 224 c 128,-1,2
 532 147 532 147 430 147 c 256,3,4
 328 147 328 147 259 214 c 128,-1,5
 190 281 190 281 184 383 c 1,6,-1
 184 416 l 1,7,-1
 297 416 l 1,8,9
 295 406 295 406 295 383 c 0,10,11
 295 330 295 330 333 293 c 128,-1,12
 371 256 371 256 424 256 c 0,13,14
 481 256 481 256 519 305 c 128,-1,15
 557 354 557 354 557 412 c 2,16,-1
 557 922 l 1,17,-1
 668 922 l 1,18,-1
 668 406 l 2,0,1
EndSplineSet
EndChar

StartChar: K
Encoding: 43 75 46
Width: 903
Flags: W
LayerCount: 2
Fore
SplineSet
842 166 m 1,0,-1
 700 166 l 1,1,-1
 471 514 l 1,2,-1
 377 399 l 1,3,4
 377 244 377 244 379 166 c 1,5,-1
 266 166 l 1,6,-1
 266 926 l 1,7,-1
 379 926 l 1,8,-1
 379 567 l 1,9,-1
 686 926 l 1,10,-1
 829 926 l 1,11,-1
 549 596 l 1,12,-1
 842 166 l 1,0,-1
EndSplineSet
EndChar

StartChar: L
Encoding: 44 76 47
Width: 776
Flags: W
LayerCount: 2
Fore
SplineSet
694 166 m 1,0,-1
 229 166 l 1,1,-1
 229 926 l 1,2,-1
 340 926 l 1,3,-1
 340 279 l 1,4,-1
 694 279 l 1,5,-1
 694 166 l 1,0,-1
EndSplineSet
EndChar

StartChar: M
Encoding: 45 77 48
Width: 1022
Flags: W
LayerCount: 2
Fore
SplineSet
922 166 m 1,0,-1
 809 166 l 1,1,-1
 809 723 l 1,2,3
 762 641 762 641 659 485 c 1,4,5
 639 459 639 459 602 459 c 0,6,7
 559 459 559 459 537.5 486.5 c 128,-1,8
 516 514 516 514 377 717 c 1,9,-1
 377 166 l 1,10,-1
 268 166 l 1,11,-1
 268 926 l 1,12,-1
 369 926 l 1,13,-1
 594 592 l 1,14,15
 750 811 750 811 821 926 c 1,16,-1
 922 926 l 1,17,-1
 922 166 l 1,0,-1
EndSplineSet
EndChar

StartChar: N
Encoding: 46 78 49
Width: 895
Flags: W
LayerCount: 2
Fore
SplineSet
795 166 m 1,0,-1
 698 166 l 1,1,-1
 356 709 l 1,2,-1
 356 166 l 1,3,-1
 246 166 l 1,4,-1
 246 926 l 1,5,-1
 354 926 l 1,6,-1
 682 401 l 1,7,-1
 682 926 l 1,8,-1
 795 926 l 1,9,-1
 795 166 l 1,0,-1
EndSplineSet
EndChar

StartChar: O
Encoding: 47 79 50
Width: 956
Flags: W
LayerCount: 2
Fore
SplineSet
893 537 m 0,0,1
 893 385 893 385 809 272 c 0,2,3
 717 147 717 147 571 147 c 0,4,5
 426 147 426 147 334 270 c 1,6,7
 248 383 248 383 248 532 c 0,8,9
 248 690 248 690 330 805 c 1,10,11
 422 932 422 932 573 932 c 0,12,13
 719 932 719 932 809 803 c 1,14,15
 893 688 893 688 893 537 c 0,0,1
778 545 m 0,16,17
 778 647 778 647 729 729 c 1,18,19
 670 821 670 821 573 821 c 0,20,21
 473 821 473 821 414 731 c 0,22,23
 362 651 362 651 362 547 c 0,24,25
 362 436 362 436 412 356 c 1,26,27
 469 260 469 260 571 260 c 0,28,29
 672 260 672 260 729 356 c 1,30,31
 778 436 778 436 778 545 c 0,16,17
EndSplineSet
EndChar

StartChar: P
Encoding: 48 80 51
Width: 852
Flags: W
LayerCount: 2
Fore
SplineSet
776 700 m 0,0,1
 776 588 776 588 697 526.5 c 128,-1,2
 618 465 618 465 504 465 c 2,3,-1
 358 465 l 1,4,-1
 358 166 l 1,5,-1
 246 166 l 1,6,-1
 246 922 l 1,7,-1
 473 922 l 2,8,9
 592 922 592 922 676 872 c 1,10,11
 776 811 776 811 776 700 c 0,0,1
668 694 m 0,12,13
 668 754 668 754 614 784 c 0,14,15
 571 809 571 809 508 809 c 2,16,-1
 358 809 l 1,17,-1
 358 578 l 1,18,-1
 500 578 l 2,19,20
 563 578 563 578 610 604 c 0,21,22
 668 635 668 635 668 694 c 0,12,13
EndSplineSet
EndChar

StartChar: Q
Encoding: 49 81 52
Width: 987
Flags: W
LayerCount: 2
Fore
SplineSet
946 231 m 1,0,1
 928 203 928 203 889 139 c 1,2,3
 809 170 809 170 760 207 c 1,4,5
 680 145 680 145 584 145 c 0,6,7
 434 145 434 145 344 272 c 1,8,9
 262 385 262 385 262 539 c 0,10,11
 262 690 262 690 342 805 c 1,12,13
 432 932 432 932 578 932 c 0,14,15
 727 932 727 932 821 807 c 0,16,17
 907 694 907 694 907 539 c 0,18,19
 907 395 907 395 831 283 c 1,20,21
 874 256 874 256 946 231 c 1,0,1
797 537 m 0,22,23
 797 645 797 645 745 727 c 1,24,25
 688 823 688 823 586 823 c 0,26,27
 483 823 483 823 424 729 c 0,28,29
 373 647 373 647 373 539 c 0,30,31
 373 430 373 430 422 350 c 1,32,33
 481 256 481 256 584 256 c 0,34,35
 635 256 635 256 678 283 c 1,36,37
 653 309 653 309 594 371 c 1,38,-1
 659 453 l 1,39,40
 678 434 678 434 750 356 c 1,41,42
 797 434 797 434 797 537 c 0,22,23
EndSplineSet
EndChar

StartChar: R
Encoding: 50 82 53
Width: 893
Flags: W
LayerCount: 2
Fore
SplineSet
836 166 m 1,0,-1
 702 166 l 1,1,2
 600 422 600 422 520 483 c 1,3,-1
 383 483 l 1,4,-1
 383 166 l 1,5,-1
 268 166 l 1,6,-1
 270 922 l 1,7,-1
 565 922 l 2,8,9
 674 922 674 922 741 870 c 1,10,11
 817 813 817 813 817 709 c 0,12,13
 817 635 817 635 771 571.5 c 128,-1,14
 725 508 725 508 653 494 c 1,15,16
 688 463 688 463 750 340 c 0,17,18
 793 254 793 254 836 166 c 1,0,-1
707 707 m 0,19,20
 707 750 707 750 668 779.5 c 128,-1,21
 629 809 629 809 584 809 c 2,22,-1
 383 809 l 1,23,-1
 383 596 l 1,24,-1
 586 596 l 2,25,26
 635 596 635 596 671 626.5 c 128,-1,27
 707 657 707 657 707 707 c 0,19,20
EndSplineSet
EndChar

StartChar: S
Encoding: 51 83 54
Width: 879
Flags: W
LayerCount: 2
Fore
SplineSet
807 381 m 0,0,1
 807 262 807 262 717 201 c 0,2,3
 639 147 639 147 512 147 c 0,4,5
 389 147 389 147 309 205 c 0,6,7
 221 270 221 270 211 387 c 1,8,-1
 326 395 l 1,9,10
 342 256 342 256 520 256 c 0,11,12
 588 256 588 256 635 283 c 0,13,14
 692 315 692 315 692 377 c 0,15,16
 692 453 692 453 578 489 c 0,17,18
 471 522 471 522 362 557 c 1,19,20
 248 612 248 612 248 737 c 0,21,22
 248 836 248 836 336 891 c 1,23,24
 410 936 410 936 514 936 c 0,25,26
 748 936 748 936 793 729 c 1,27,-1
 678 719 l 1,28,29
 678 774 678 774 618 803 c 0,30,31
 571 825 571 825 510 825 c 0,32,33
 358 825 358 825 358 723 c 0,34,35
 358 666 358 666 473 635 c 1,36,37
 526 618 526 618 633 588 c 0,38,39
 807 539 807 539 807 381 c 0,0,1
EndSplineSet
EndChar

StartChar: T
Encoding: 52 84 55
Width: 922
Flags: W
LayerCount: 2
Fore
SplineSet
838 811 m 1,0,-1
 592 811 l 1,1,-1
 592 166 l 1,2,-1
 481 166 l 1,3,-1
 481 811 l 1,4,-1
 240 811 l 1,5,-1
 240 926 l 1,6,-1
 838 926 l 1,7,-1
 838 811 l 1,0,-1
EndSplineSet
EndChar

StartChar: U
Encoding: 53 85 56
Width: 915
Flags: W
LayerCount: 2
Fore
SplineSet
836 467 m 2,0,1
 836 338 836 338 754 241.5 c 128,-1,2
 672 145 672 145 545 145 c 0,3,4
 414 145 414 145 332 239.5 c 128,-1,5
 250 334 250 334 250 467 c 2,6,-1
 250 924 l 1,7,-1
 360 924 l 1,8,-1
 360 465 l 2,9,10
 360 387 360 387 412.5 321.5 c 128,-1,11
 465 256 465 256 541 256 c 0,12,13
 618 256 618 256 671.5 322.5 c 128,-1,14
 725 389 725 389 725 467 c 2,15,-1
 725 924 l 1,16,-1
 836 924 l 1,17,-1
 836 467 l 2,0,1
EndSplineSet
EndChar

StartChar: V
Encoding: 54 86 57
Width: 1020
Flags: W
LayerCount: 2
Fore
SplineSet
948 926 m 1,0,-1
 651 166 l 1,1,-1
 541 166 l 1,2,-1
 252 926 l 1,3,-1
 375 926 l 1,4,-1
 598 340 l 1,5,-1
 825 926 l 1,6,-1
 948 926 l 1,0,-1
EndSplineSet
EndChar

StartChar: W
Encoding: 55 87 58
Width: 1237
Flags: W
LayerCount: 2
Fore
SplineSet
1163 924 m 1,0,-1
 1001 166 l 1,1,-1
 866 166 l 1,2,-1
 729 651 l 1,3,-1
 588 166 l 1,4,-1
 457 166 l 1,5,-1
 289 924 l 1,6,-1
 403 924 l 1,7,-1
 526 367 l 1,8,-1
 662 801 l 1,9,10
 686 874 686 874 729 874 c 256,11,12
 772 874 772 874 795 801 c 2,13,-1
 930 371 l 1,14,-1
 1044 924 l 1,15,-1
 1163 924 l 1,0,-1
EndSplineSet
EndChar

StartChar: X
Encoding: 56 88 59
Width: 946
Flags: W
LayerCount: 2
Fore
SplineSet
881 166 m 1,0,-1
 743 166 l 1,1,2
 680 264 680 264 553 467 c 1,3,4
 465 328 465 328 354 166 c 1,5,-1
 215 166 l 1,6,-1
 479 557 l 1,7,-1
 246 926 l 1,8,-1
 381 926 l 1,9,-1
 555 643 l 1,10,11
 571 672 571 672 737 926 c 1,12,-1
 872 926 l 1,13,-1
 629 557 l 1,14,-1
 881 166 l 1,0,-1
EndSplineSet
EndChar

StartChar: Y
Encoding: 57 89 60
Width: 963
Flags: W
LayerCount: 2
Fore
SplineSet
885 926 m 1,0,-1
 614 485 l 1,1,-1
 614 166 l 1,2,-1
 504 166 l 1,3,-1
 504 485 l 1,4,-1
 233 926 l 1,5,-1
 369 926 l 1,6,-1
 559 608 l 1,7,8
 643 743 643 743 752 926 c 1,9,-1
 885 926 l 1,0,-1
EndSplineSet
EndChar

StartChar: Z
Encoding: 58 90 61
Width: 899
Flags: W
LayerCount: 2
Fore
SplineSet
817 166 m 1,0,-1
 246 166 l 1,1,-1
 248 276 l 1,2,-1
 662 813 l 1,3,-1
 274 813 l 1,4,-1
 274 926 l 1,5,-1
 809 926 l 1,6,-1
 809 821 l 1,7,8
 600 551 600 551 391 279 c 1,9,-1
 817 279 l 1,10,-1
 817 166 l 1,0,-1
EndSplineSet
EndChar

StartChar: bracketleft
Encoding: 59 91 62
Width: 735
Flags: W
LayerCount: 2
Fore
SplineSet
647 -299 m 1,0,-1
 352 -299 l 1,1,-1
 352 1329 l 1,2,-1
 647 1329 l 1,3,-1
 647 1188 l 1,4,-1
 504 1188 l 1,5,-1
 504 -160 l 1,6,-1
 647 -160 l 1,7,-1
 647 -299 l 1,0,-1
EndSplineSet
EndChar

StartChar: backslash
Encoding: 60 92 63
Width: 702
Flags: W
LayerCount: 2
Fore
SplineSet
680 -129 m 1,0,-1
 586 -184 l 1,1,-1
 37 1212 l 1,2,-1
 131 1260 l 1,3,-1
 680 -129 l 1,0,-1
EndSplineSet
EndChar

StartChar: bracketright
Encoding: 61 93 64
Width: 733
Flags: W
LayerCount: 2
Fore
SplineSet
424 -299 m 1,0,-1
 131 -299 l 1,1,-1
 131 -160 l 1,2,-1
 274 -160 l 1,3,-1
 274 1188 l 1,4,-1
 131 1188 l 1,5,-1
 131 1327 l 1,6,-1
 424 1327 l 1,7,-1
 424 -299 l 1,0,-1
EndSplineSet
EndChar

StartChar: asciicircum
Encoding: 62 94 65
Width: 825
Flags: W
LayerCount: 2
Fore
SplineSet
784 696 m 1,0,-1
 635 696 l 1,1,-1
 438 1090 l 1,2,-1
 248 696 l 1,3,-1
 94 696 l 1,4,-1
 383 1288 l 1,5,-1
 496 1288 l 1,6,-1
 784 696 l 1,0,-1
EndSplineSet
EndChar

StartChar: underscore
Encoding: 63 95 66
Width: 856
Flags: W
LayerCount: 2
Fore
SplineSet
868 -356 m 1,0,-1
 -12 -356 l 1,1,-1
 -12 -260 l 1,2,-1
 868 -260 l 1,3,-1
 868 -356 l 1,0,-1
EndSplineSet
EndChar

StartChar: grave
Encoding: 64 96 67
Width: 0
Flags: W
LayerCount: 2
Fore
SplineSet
-287 1159 m 1,0,-1
 -346 1159 l 1,1,-1
 -657 1487 l 1,2,-1
 -477 1487 l 1,3,-1
 -287 1159 l 1,0,-1
EndSplineSet
EndChar

StartChar: a
Encoding: 65 97 68
Width: 891
Flags: W
LayerCount: 2
Fore
SplineSet
848 221 m 1,0,-1
 748 221 l 1,1,-1
 694 348 l 1,2,-1
 401 348 l 1,3,-1
 356 221 l 1,4,-1
 254 221 l 1,5,-1
 487 870 l 1,6,-1
 592 870 l 1,7,-1
 848 221 l 1,0,-1
664 432 m 1,8,-1
 541 743 l 1,9,10
 487 588 487 588 434 432 c 1,11,-1
 664 432 l 1,8,-1
EndSplineSet
EndChar

StartChar: b
Encoding: 66 98 69
Width: 801
Flags: W
LayerCount: 2
Fore
SplineSet
739 406 m 0,0,1
 739 221 739 221 506 221 c 2,2,-1
 268 221 l 1,3,-1
 268 870 l 1,4,-1
 487 870 l 2,5,6
 578 870 578 870 635 829 c 0,7,8
 702 782 702 782 702 698 c 0,9,10
 702 612 702 612 633 565 c 1,11,12
 739 508 739 508 739 406 c 0,0,1
612 692 m 0,13,14
 612 774 612 774 479 774 c 2,15,-1
 365 774 l 1,16,-1
 365 604 l 1,17,-1
 481 604 l 2,18,19
 612 604 612 604 612 692 c 0,13,14
643 410 m 0,20,21
 643 508 643 508 481 508 c 2,22,-1
 365 508 l 1,23,-1
 365 315 l 1,24,-1
 494 315 l 2,25,26
 643 315 643 315 643 410 c 0,20,21
EndSplineSet
EndChar

StartChar: c
Encoding: 67 99 70
Width: 846
Flags: W
LayerCount: 2
Fore
SplineSet
788 403 m 1,0,1
 729 209 729 209 551 209 c 0,2,3
 281 209 281 209 281 547 c 0,4,5
 281 686 281 686 344 776 c 1,6,7
 416 881 416 881 549 881 c 0,8,9
 627 881 627 881 693.5 832.5 c 128,-1,10
 760 784 760 784 784 711 c 1,11,-1
 690 690 l 1,12,13
 653 786 653 786 553 786 c 0,14,15
 377 786 377 786 377 541 c 0,16,17
 377 303 377 303 543 303 c 0,18,19
 659 303 659 303 694 428 c 1,20,-1
 788 403 l 1,0,1
EndSplineSet
EndChar

StartChar: d
Encoding: 68 100 71
Width: 834
Flags: W
LayerCount: 2
Fore
SplineSet
772 545 m 0,0,1
 772 395 772 395 696 311 c 1,2,3
 618 221 618 221 471 221 c 2,4,-1
 285 221 l 1,5,-1
 285 870 l 1,6,-1
 463 870 l 2,7,8
 608 870 608 870 690 780 c 128,-1,9
 772 690 772 690 772 545 c 0,0,1
680 541 m 0,10,11
 680 647 680 647 623.5 710.5 c 128,-1,12
 567 774 567 774 461 774 c 2,13,-1
 379 774 l 1,14,-1
 379 315 l 1,15,-1
 463 315 l 2,16,17
 563 315 563 315 621.5 376.5 c 128,-1,18
 680 438 680 438 680 541 c 0,10,11
EndSplineSet
EndChar

StartChar: e
Encoding: 69 101 72
Width: 801
Flags: W
LayerCount: 2
Fore
SplineSet
729 221 m 1,0,-1
 287 221 l 1,1,-1
 287 870 l 1,2,-1
 717 870 l 1,3,-1
 717 774 l 1,4,-1
 383 774 l 1,5,-1
 383 600 l 1,6,-1
 668 600 l 1,7,-1
 668 504 l 1,8,-1
 383 504 l 1,9,-1
 383 317 l 1,10,-1
 729 317 l 1,11,-1
 729 221 l 1,0,-1
EndSplineSet
EndChar

StartChar: f
Encoding: 70 102 73
Width: 752
Flags: W
LayerCount: 2
Fore
SplineSet
682 774 m 1,0,-1
 367 774 l 1,1,-1
 367 594 l 1,2,-1
 649 594 l 1,3,-1
 649 496 l 1,4,-1
 367 496 l 1,5,-1
 367 221 l 1,6,-1
 270 221 l 1,7,-1
 270 870 l 1,8,-1
 682 870 l 1,9,-1
 682 774 l 1,0,-1
EndSplineSet
EndChar

StartChar: g
Encoding: 71 103 74
Width: 913
Flags: W
LayerCount: 2
Fore
SplineSet
848 307 m 1,0,1
 721 205 721 205 588 205 c 0,2,3
 446 205 446 205 367 305 c 0,4,5
 295 397 295 397 295 543 c 0,6,7
 295 688 295 688 360 776 c 1,8,9
 436 874 436 874 575 874 c 0,10,11
 772 874 772 874 842 717 c 1,12,-1
 745 692 l 1,13,14
 694 782 694 782 586 782 c 0,15,16
 492 782 492 782 438 709 c 1,17,18
 391 643 391 643 391 547 c 0,19,20
 391 442 391 442 438 375 c 0,21,22
 492 299 492 299 592 299 c 0,23,24
 672 299 672 299 752 360 c 1,25,-1
 752 461 l 1,26,-1
 575 461 l 1,27,-1
 575 557 l 1,28,-1
 848 557 l 1,29,-1
 848 307 l 1,0,1
EndSplineSet
EndChar

StartChar: h
Encoding: 72 104 75
Width: 831
Flags: W
LayerCount: 2
Fore
SplineSet
756 221 m 1,0,-1
 659 221 l 1,1,-1
 659 506 l 1,2,-1
 381 506 l 1,3,-1
 381 221 l 1,4,-1
 285 221 l 1,5,-1
 285 870 l 1,6,-1
 381 870 l 1,7,-1
 381 600 l 1,8,-1
 659 600 l 1,9,-1
 659 870 l 1,10,-1
 756 870 l 1,11,-1
 756 221 l 1,0,-1
EndSplineSet
EndChar

StartChar: i
Encoding: 73 105 76
Width: 385
Flags: W
LayerCount: 2
Fore
SplineSet
289 221 m 1,0,-1
 195 221 l 1,1,-1
 195 870 l 1,2,-1
 289 870 l 1,3,-1
 289 221 l 1,0,-1
EndSplineSet
EndChar

StartChar: j
Encoding: 74 106 77
Width: 719
Flags: W
LayerCount: 2
Fore
SplineSet
633 424 m 2,0,1
 633 334 633 334 574.5 268.5 c 128,-1,2
 516 203 516 203 428 203 c 256,3,4
 340 203 340 203 281.5 260 c 128,-1,5
 223 317 223 317 219 403 c 1,6,-1
 219 432 l 1,7,-1
 315 432 l 1,8,9
 313 424 313 424 313 406 c 0,10,11
 313 358 313 358 346 327.5 c 128,-1,12
 379 297 379 297 424 297 c 0,13,14
 473 297 473 297 506 339 c 128,-1,15
 539 381 539 381 539 430 c 2,16,-1
 539 866 l 1,17,-1
 633 866 l 1,18,-1
 633 424 l 2,0,1
EndSplineSet
EndChar

StartChar: k
Encoding: 75 107 78
Width: 854
Flags: W
LayerCount: 2
Fore
SplineSet
801 221 m 1,0,-1
 678 221 l 1,1,-1
 483 518 l 1,2,-1
 401 420 l 1,3,4
 401 287 401 287 403 221 c 1,5,-1
 307 221 l 1,6,-1
 307 870 l 1,7,-1
 403 870 l 1,8,-1
 403 565 l 1,9,-1
 666 870 l 1,10,-1
 788 870 l 1,11,-1
 549 588 l 1,12,-1
 801 221 l 1,0,-1
EndSplineSet
EndChar

StartChar: l
Encoding: 76 108 79
Width: 731
Flags: W
LayerCount: 2
Fore
SplineSet
662 221 m 1,0,-1
 262 221 l 1,1,-1
 262 870 l 1,2,-1
 358 870 l 1,3,-1
 358 317 l 1,4,-1
 662 317 l 1,5,-1
 662 221 l 1,0,-1
EndSplineSet
EndChar

StartChar: m
Encoding: 77 109 80
Width: 961
Flags: W
LayerCount: 2
Fore
SplineSet
877 221 m 1,0,-1
 778 221 l 1,1,-1
 778 698 l 1,2,3
 737 629 737 629 649 496 c 0,4,5
 633 471 633 471 600 471 c 0,6,7
 565 471 565 471 546.5 494.5 c 128,-1,8
 528 518 528 518 410 692 c 1,9,-1
 410 221 l 1,10,-1
 313 221 l 1,11,-1
 313 870 l 1,12,-1
 401 870 l 1,13,-1
 594 586 l 1,14,15
 727 772 727 772 788 870 c 1,16,-1
 877 870 l 1,17,-1
 877 221 l 1,0,-1
EndSplineSet
EndChar

StartChar: n
Encoding: 78 110 81
Width: 842
Flags: W
LayerCount: 2
Fore
SplineSet
756 221 m 1,0,-1
 672 221 l 1,1,-1
 381 686 l 1,2,-1
 381 221 l 1,3,-1
 285 221 l 1,4,-1
 285 870 l 1,5,-1
 377 870 l 1,6,-1
 659 422 l 1,7,-1
 659 870 l 1,8,-1
 756 870 l 1,9,-1
 756 221 l 1,0,-1
EndSplineSet
EndChar

StartChar: o
Encoding: 79 111 82
Width: 901
Flags: W
LayerCount: 2
Fore
SplineSet
846 537 m 256,0,1
 846 408 846 408 774 311 c 1,2,3
 696 203 696 203 571 203 c 256,4,5
 446 203 446 203 367 309 c 0,6,7
 295 406 295 406 295 535 c 0,8,9
 295 668 295 668 365 766 c 1,10,11
 442 877 442 877 571 877 c 0,12,13
 696 877 696 877 776 766 c 1,14,15
 846 666 846 666 846 537 c 256,0,1
750 543 m 0,16,17
 750 633 750 633 707 700 c 0,18,19
 655 780 655 780 571 780 c 256,20,21
 487 780 487 780 436 702 c 0,22,23
 393 635 393 635 393 545 c 0,24,25
 393 451 393 451 434 383 c 0,26,27
 483 301 483 301 571 301 c 0,28,29
 657 301 657 301 707 383 c 1,30,31
 750 451 750 451 750 543 c 0,16,17
EndSplineSet
EndChar

StartChar: p
Encoding: 80 112 83
Width: 803
Flags: W
LayerCount: 2
Fore
SplineSet
739 678 m 256,0,1
 739 582 739 582 670.5 529.5 c 128,-1,2
 602 477 602 477 504 477 c 2,3,-1
 381 477 l 1,4,-1
 381 219 l 1,5,-1
 285 219 l 1,6,-1
 283 868 l 1,7,-1
 479 868 l 2,8,9
 580 868 580 868 653 825 c 0,10,11
 739 774 739 774 739 678 c 256,0,1
645 674 m 0,12,13
 645 772 645 772 510 772 c 2,14,-1
 381 772 l 1,15,-1
 381 573 l 1,16,-1
 500 573 l 2,17,18
 555 573 555 573 596 594 c 1,19,20
 645 623 645 623 645 674 c 0,12,13
EndSplineSet
EndChar

StartChar: q
Encoding: 81 113 84
Width: 932
Flags: W
LayerCount: 2
Fore
SplineSet
897 276 m 1,0,1
 881 252 881 252 848 197 c 1,2,3
 780 221 780 221 737 254 c 1,4,5
 670 203 670 203 586 203 c 0,6,7
 459 203 459 203 381 309 c 1,8,9
 311 408 311 408 311 539 c 0,10,11
 311 668 311 668 381 766 c 0,12,13
 457 874 457 874 582 874 c 0,14,15
 711 874 711 874 791 768 c 0,16,17
 864 672 864 672 864 539 c 0,18,19
 864 414 864 414 799 319 c 1,20,21
 836 295 836 295 897 276 c 1,0,1
768 537 m 0,22,23
 768 629 768 629 727 698 c 0,24,25
 676 782 676 782 588 782 c 256,26,27
 500 782 500 782 449 700 c 0,28,29
 406 631 406 631 406 537 c 0,30,31
 406 444 406 444 449 377 c 1,32,33
 498 295 498 295 586 295 c 0,34,35
 631 295 631 295 668 319 c 1,36,37
 645 342 645 342 596 393 c 1,38,-1
 651 463 l 1,39,40
 668 449 668 449 729 381 c 1,41,42
 768 449 768 449 768 537 c 0,22,23
EndSplineSet
EndChar

StartChar: r
Encoding: 82 114 85
Width: 846
Flags: W
LayerCount: 2
Fore
SplineSet
795 219 m 1,0,-1
 682 219 l 1,1,2
 594 440 594 440 526 494 c 1,3,-1
 406 494 l 1,4,-1
 406 219 l 1,5,-1
 309 219 l 1,6,7
 311 453 311 453 311 868 c 1,8,-1
 563 868 l 2,9,10
 655 868 655 868 717.5 821 c 128,-1,11
 780 774 780 774 780 686 c 0,12,13
 780 623 780 623 740 567.5 c 128,-1,14
 700 512 700 512 639 500 c 1,15,16
 670 475 670 475 721 369 c 1,17,18
 758 295 758 295 795 219 c 1,0,-1
686 684 m 0,19,20
 686 721 686 721 652 746.5 c 128,-1,21
 618 772 618 772 580 772 c 2,22,-1
 406 772 l 1,23,-1
 406 588 l 1,24,-1
 582 588 l 2,25,26
 623 588 623 588 654.5 614.5 c 128,-1,27
 686 641 686 641 686 684 c 0,19,20
EndSplineSet
EndChar

StartChar: s
Encoding: 83 115 86
Width: 825
Flags: W
LayerCount: 2
Fore
SplineSet
764 406 m 0,0,1
 764 301 764 301 686 248 c 0,2,3
 621 203 621 203 512 203 c 0,4,5
 408 203 408 203 338 254 c 0,6,7
 262 309 262 309 254 410 c 1,8,-1
 350 416 l 1,9,10
 367 297 367 297 518 297 c 0,11,12
 668 297 668 297 668 401 c 0,13,14
 668 465 668 465 567 498 c 1,15,16
 475 526 475 526 383 555 c 1,17,18
 285 602 285 602 285 709 c 0,19,20
 285 793 285 793 360 840 c 0,21,22
 424 881 424 881 514 881 c 0,23,24
 713 881 713 881 752 702 c 1,25,-1
 655 694 l 1,26,27
 655 741 655 741 604 766 c 0,28,29
 563 786 563 786 510 786 c 0,30,31
 379 786 379 786 379 696 c 0,32,33
 379 647 379 647 479 623 c 1,34,35
 524 608 524 608 614 582 c 1,36,37
 764 541 764 541 764 406 c 0,0,1
EndSplineSet
EndChar

StartChar: t
Encoding: 84 116 87
Width: 866
Flags: W
LayerCount: 2
Fore
SplineSet
795 774 m 1,0,-1
 584 774 l 1,1,-1
 584 221 l 1,2,-1
 489 221 l 1,3,-1
 489 774 l 1,4,-1
 283 774 l 1,5,-1
 283 870 l 1,6,-1
 795 870 l 1,7,-1
 795 774 l 1,0,-1
EndSplineSet
EndChar

StartChar: u
Encoding: 85 117 88
Width: 862
Flags: W
LayerCount: 2
Fore
SplineSet
795 477 m 2,0,1
 795 365 795 365 724 283 c 128,-1,2
 653 201 653 201 545 201 c 0,3,4
 432 201 432 201 360 285 c 1,5,6
 291 362 291 362 291 477 c 2,7,-1
 291 868 l 1,8,-1
 387 868 l 1,9,-1
 387 475 l 2,10,11
 387 408 387 408 432 352.5 c 128,-1,12
 477 297 477 297 541 297 c 0,13,14
 608 297 608 297 653 353.5 c 128,-1,15
 698 410 698 410 698 477 c 2,16,-1
 698 868 l 1,17,-1
 795 868 l 1,18,-1
 795 477 l 2,0,1
EndSplineSet
EndChar

StartChar: v
Encoding: 86 118 89
Width: 961
Flags: W
LayerCount: 2
Fore
SplineSet
899 870 m 1,0,-1
 645 221 l 1,1,-1
 549 221 l 1,2,-1
 301 870 l 1,3,-1
 408 870 l 1,4,-1
 598 369 l 1,5,-1
 793 870 l 1,6,-1
 899 870 l 1,0,-1
EndSplineSet
EndChar

StartChar: w
Encoding: 87 119 90
Width: 1163
Flags: W
LayerCount: 2
Fore
SplineSet
1102 868 m 1,0,-1
 961 221 l 1,1,-1
 848 221 l 1,2,-1
 729 637 l 1,3,-1
 608 221 l 1,4,-1
 494 221 l 1,5,-1
 350 868 l 1,6,-1
 451 868 l 1,7,-1
 555 393 l 1,8,-1
 672 764 l 1,9,10
 690 827 690 827 729 827 c 0,11,12
 766 827 766 827 786 764 c 2,13,-1
 899 395 l 1,14,-1
 997 868 l 1,15,-1
 1102 868 l 1,0,-1
EndSplineSet
EndChar

StartChar: x
Encoding: 88 120 91
Width: 889
Flags: W
LayerCount: 2
Fore
SplineSet
834 221 m 1,0,-1
 715 221 l 1,1,2
 659 303 659 303 553 477 c 1,3,4
 477 358 477 358 381 221 c 1,5,-1
 262 221 l 1,6,-1
 487 557 l 1,7,-1
 289 870 l 1,8,-1
 406 870 l 1,9,-1
 553 631 l 1,10,11
 569 655 569 655 709 870 c 1,12,-1
 825 870 l 1,13,-1
 616 557 l 1,14,-1
 834 221 l 1,0,-1
EndSplineSet
EndChar

StartChar: y
Encoding: 89 121 92
Width: 905
Flags: W
LayerCount: 2
Fore
SplineSet
838 870 m 1,0,-1
 606 494 l 1,1,-1
 606 221 l 1,2,-1
 512 221 l 1,3,-1
 512 494 l 1,4,-1
 281 870 l 1,5,-1
 395 870 l 1,6,-1
 559 600 l 1,7,8
 631 715 631 715 725 870 c 1,9,-1
 838 870 l 1,0,-1
EndSplineSet
EndChar

StartChar: z
Encoding: 90 122 93
Width: 846
Flags: W
LayerCount: 2
Fore
SplineSet
776 221 m 1,0,-1
 287 221 l 1,1,-1
 287 315 l 1,2,-1
 643 774 l 1,3,-1
 311 774 l 1,4,-1
 311 870 l 1,5,-1
 770 870 l 1,6,-1
 770 780 l 1,7,8
 590 549 590 549 412 317 c 1,9,-1
 776 317 l 1,10,-1
 776 221 l 1,0,-1
EndSplineSet
EndChar

StartChar: braceleft
Encoding: 91 123 94
Width: 905
Flags: W
LayerCount: 2
Fore
SplineSet
647 1499 m 1,0,1
 473 1407 473 1407 473 1284 c 0,2,3
 473 1233 473 1233 495.5 1133.5 c 128,-1,4
 518 1034 518 1034 518 983 c 0,5,6
 518 750 518 750 266 659 c 1,7,8
 518 573 518 573 518 334 c 0,9,10
 518 283 518 283 495.5 183.5 c 128,-1,11
 473 84 473 84 473 33 c 0,12,13
 473 -86 473 -86 645 -182 c 1,14,15
 526 -145 526 -145 451 -63 c 1,16,17
 367 27 367 27 367 143 c 0,18,19
 367 195 367 195 389.5 292 c 128,-1,20
 412 389 412 389 412 440 c 0,21,22
 412 600 412 600 184 655 c 1,23,-1
 184 664 l 1,24,25
 412 733 412 733 412 877 c 0,26,27
 412 928 412 928 389.5 1025 c 128,-1,28
 367 1122 367 1122 367 1174 c 0,29,30
 367 1290 367 1290 451 1382 c 1,31,32
 528 1464 528 1464 647 1499 c 1,0,1
EndSplineSet
EndChar

StartChar: bar
Encoding: 92 124 95
Width: 512
Flags: W
LayerCount: 2
Fore
SplineSet
330 -301 m 1,0,-1
 197 -301 l 1,1,-1
 197 1362 l 1,2,-1
 330 1362 l 1,3,-1
 330 -301 l 1,0,-1
EndSplineSet
EndChar

StartChar: braceright
Encoding: 93 125 96
Width: 905
Flags: W
LayerCount: 2
Fore
SplineSet
733 635 m 1,0,1
 643 621 643 621 580 567 c 1,2,3
 508 508 508 508 508 422 c 0,4,5
 508 371 508 371 530.5 273.5 c 128,-1,6
 553 176 553 176 553 125 c 0,7,8
 553 10 553 10 469 -82 c 1,9,10
 393 -162 393 -162 276 -201 c 1,11,12
 444 -106 444 -106 444 14 c 0,13,14
 444 66 444 66 420.5 164 c 128,-1,15
 397 262 397 262 397 313 c 0,16,17
 397 451 397 451 448.5 523.5 c 128,-1,18
 500 596 500 596 631 639 c 1,19,20
 504 682 504 682 450.5 756.5 c 128,-1,21
 397 831 397 831 397 965 c 0,22,23
 397 1016 397 1016 420.5 1115 c 128,-1,24
 444 1214 444 1214 444 1266 c 0,25,26
 444 1397 444 1397 256 1485 c 1,27,28
 379 1454 379 1454 463 1368 c 1,29,30
 553 1274 553 1274 553 1153 c 0,31,32
 553 1104 553 1104 530.5 1005.5 c 128,-1,33
 508 907 508 907 508 858 c 0,34,35
 508 772 508 772 580 711 c 1,36,37
 641 657 641 657 733 643 c 1,38,-1
 733 635 l 1,0,1
EndSplineSet
EndChar

StartChar: asciitilde
Encoding: 94 126 97
Width: 942
Flags: W
LayerCount: 2
Fore
SplineSet
866 598 m 1,0,-1
 856 485 l 1,1,-1
 745 424 l 2,2,3
 676 385 676 385 627 385 c 0,4,5
 567 385 567 385 469 467 c 0,6,7
 360 557 360 557 285 557 c 0,8,9
 231 557 231 557 172 510 c 1,10,11
 123 467 123 467 76 424 c 1,12,-1
 88 551 l 1,13,14
 266 672 266 672 328 672 c 0,15,16
 381 672 381 672 492.5 587 c 128,-1,17
 604 502 604 502 672 502 c 0,18,19
 721 502 721 502 776 535 c 1,20,21
 821 567 821 567 866 598 c 1,0,-1
EndSplineSet
EndChar

StartChar: currency
Encoding: 95 164 98
Width: 1139
Flags: W
LayerCount: 2
Fore
SplineSet
1049 420 m 1,0,-1
 956 326 l 1,1,-1
 815 469 l 1,2,3
 696 387 696 387 565 387 c 256,4,5
 434 387 434 387 315 469 c 1,6,-1
 172 326 l 1,7,-1
 82 420 l 1,8,-1
 225 559 l 1,9,10
 145 682 145 682 145 809 c 0,11,12
 145 932 145 932 225 1057 c 1,13,-1
 82 1196 l 1,14,-1
 172 1288 l 1,15,-1
 315 1147 l 1,16,17
 434 1229 434 1229 565 1229 c 256,18,19
 696 1229 696 1229 815 1147 c 1,20,-1
 956 1288 l 1,21,-1
 1049 1196 l 1,22,-1
 905 1057 l 1,23,24
 985 932 985 932 985 809 c 0,25,26
 985 682 985 682 905 559 c 1,27,-1
 1049 420 l 1,0,-1
856 809 m 256,28,29
 856 932 856 932 771 1016 c 128,-1,30
 686 1100 686 1100 563 1100 c 0,31,32
 442 1100 442 1100 357 1015 c 128,-1,33
 272 930 272 930 272 809 c 0,34,35
 272 686 272 686 356 601 c 128,-1,36
 440 516 440 516 563 516 c 256,37,38
 686 516 686 516 771 601 c 128,-1,39
 856 686 856 686 856 809 c 256,28,29
EndSplineSet
EndChar

StartChar: section
Encoding: 96 167 99
Width: 1280
Flags: W
LayerCount: 2
Fore
SplineSet
1014 762 m 0,0,1
 1014 614 1014 614 840 500 c 1,2,3
 930 403 930 403 930 311 c 0,4,5
 930 203 930 203 839 127 c 128,-1,6
 748 51 748 51 635 51 c 0,7,8
 315 51 315 51 311 352 c 1,9,-1
 449 352 l 1,10,11
 451 168 451 168 612 168 c 0,12,13
 682 168 682 168 733 203 c 1,14,15
 793 242 793 242 793 307 c 0,16,17
 793 383 793 383 627 498 c 1,18,19
 506 571 506 571 387 643 c 1,20,21
 246 750 246 750 246 872 c 0,22,23
 246 1028 246 1028 414 1130 c 1,24,25
 334 1217 334 1217 334 1296 c 0,26,27
 334 1417 334 1417 420 1494 c 128,-1,28
 506 1571 506 1571 627 1571 c 0,29,30
 760 1571 760 1571 842 1491 c 128,-1,31
 924 1411 924 1411 928 1278 c 1,32,-1
 797 1278 l 1,33,34
 793 1452 793 1452 627 1452 c 0,35,36
 565 1452 565 1452 518 1414 c 128,-1,37
 471 1376 471 1376 471 1317 c 0,38,39
 471 1233 471 1233 612 1149 c 2,40,-1
 872 995 l 1,41,42
 1014 891 1014 891 1014 762 c 0,0,1
887 731 m 0,43,44
 887 831 887 831 778 897 c 2,45,-1
 487 1073 l 1,46,47
 373 1010 373 1010 373 905 c 0,48,49
 373 811 373 811 451 762 c 2,50,-1
 764 561 l 1,51,52
 887 627 887 627 887 731 c 0,43,44
EndSplineSet
EndChar

StartChar: copyright
Encoding: 97 169 100
Width: 1434
Flags: W
LayerCount: 2
Fore
SplineSet
1239 1081 m 0,0,1
 1239 856 1239 856 1085.5 703.5 c 128,-1,2
 932 551 932 551 707 551 c 0,3,4
 481 551 481 551 327.5 703.5 c 128,-1,5
 174 856 174 856 174 1081 c 0,6,7
 174 1307 174 1307 327.5 1460.5 c 128,-1,8
 481 1614 481 1614 707 1614 c 0,9,10
 930 1614 930 1614 1084.5 1459.5 c 128,-1,11
 1239 1305 1239 1305 1239 1081 c 0,0,1
1196 1081 m 0,12,13
 1196 1290 1196 1290 1055.5 1430.5 c 128,-1,14
 915 1571 915 1571 707 1571 c 0,15,16
 500 1571 500 1571 358.5 1429.5 c 128,-1,17
 217 1288 217 1288 217 1081 c 256,18,19
 217 874 217 874 358.5 733 c 128,-1,20
 500 592 500 592 707 592 c 0,21,22
 911 592 911 592 1053.5 734.5 c 128,-1,23
 1196 877 1196 877 1196 1081 c 0,12,13
981 885 m 1,24,25
 879 750 879 750 711 750 c 0,26,27
 563 750 563 750 466 841 c 128,-1,28
 369 932 369 932 369 1077 c 0,29,30
 369 1229 369 1229 479 1325 c 1,31,32
 584 1419 584 1419 737 1419 c 0,33,34
 766 1419 766 1419 823.5 1401.5 c 128,-1,35
 881 1384 881 1384 909 1384 c 0,36,37
 942 1384 942 1384 958 1419 c 1,38,-1
 963 1419 l 1,39,-1
 975 1233 l 1,40,41
 920 1401 920 1401 729 1401 c 0,42,43
 594 1401 594 1401 526 1311 c 0,44,45
 465 1231 465 1231 465 1092 c 0,46,47
 465 774 465 774 737 774 c 0,48,49
 852 774 852 774 981 885 c 1,24,25
EndSplineSet
EndChar

StartChar: logicalnot
Encoding: 98 172 101
Width: 1282
Flags: W
LayerCount: 2
Fore
SplineSet
963 201 m 1,0,-1
 840 201 l 1,1,-1
 840 668 l 1,2,-1
 211 668 l 1,3,-1
 211 782 l 1,4,-1
 963 782 l 1,5,-1
 963 201 l 1,0,-1
EndSplineSet
EndChar

StartChar: registered
Encoding: 99 174 102
Width: 1450
Flags: W
LayerCount: 2
Fore
SplineSet
1260 1087 m 0,0,1
 1260 862 1260 862 1106 708.5 c 128,-1,2
 952 555 952 555 727 555 c 256,3,4
 502 555 502 555 348.5 708.5 c 128,-1,5
 195 862 195 862 195 1087 c 0,6,7
 195 1313 195 1313 348.5 1465.5 c 128,-1,8
 502 1618 502 1618 727 1618 c 0,9,10
 950 1618 950 1618 1105 1464.5 c 128,-1,11
 1260 1311 1260 1311 1260 1087 c 0,0,1
1217 1087 m 0,12,13
 1217 1294 1217 1294 1075.5 1435.5 c 128,-1,14
 934 1577 934 1577 727 1577 c 256,15,16
 520 1577 520 1577 379 1435.5 c 128,-1,17
 238 1294 238 1294 238 1087 c 0,18,19
 238 881 238 881 379 739.5 c 128,-1,20
 520 598 520 598 727 598 c 256,21,22
 934 598 934 598 1075.5 739.5 c 128,-1,23
 1217 881 1217 881 1217 1087 c 0,12,13
1004 772 m 1,24,-1
 901 772 l 1,25,-1
 674 1081 l 1,26,-1
 592 1081 l 1,27,-1
 592 829 l 2,28,29
 592 786 592 786 643 772 c 1,30,-1
 465 772 l 1,31,32
 510 788 510 788 510 879 c 2,33,-1
 510 1321 l 2,34,35
 510 1397 510 1397 459 1409 c 1,36,-1
 723 1409 l 2,37,38
 807 1409 807 1409 866 1372 c 0,39,40
 936 1329 936 1329 936 1251 c 0,41,42
 936 1135 936 1135 754 1090 c 1,43,-1
 930 840 l 2,44,45
 969 784 969 784 1004 772 c 1,24,-1
842 1241 m 0,46,47
 842 1374 842 1374 672 1374 c 0,48,49
 631 1374 631 1374 592 1360 c 1,50,-1
 592 1120 l 1,51,52
 721 1122 721 1122 752 1130 c 0,53,54
 842 1155 842 1155 842 1241 c 0,46,47
EndSplineSet
EndChar

StartChar: degree
Encoding: 100 176 103
Width: 766
Flags: W
LayerCount: 2
Fore
SplineSet
541 1382 m 0,0,1
 541 1284 541 1284 475.5 1218.5 c 128,-1,2
 410 1153 410 1153 311 1153 c 0,3,4
 217 1153 217 1153 149.5 1220.5 c 128,-1,5
 82 1288 82 1288 82 1382 c 0,6,7
 82 1477 82 1477 149.5 1544.5 c 128,-1,8
 217 1612 217 1612 311 1612 c 0,9,10
 406 1612 406 1612 473.5 1544.5 c 128,-1,11
 541 1477 541 1477 541 1382 c 0,0,1
502 1382 m 0,12,13
 502 1464 502 1464 447.5 1518.5 c 128,-1,14
 393 1573 393 1573 311 1573 c 0,15,16
 231 1573 231 1573 176 1517.5 c 128,-1,17
 121 1462 121 1462 121 1382 c 0,18,19
 121 1303 121 1303 176 1247.5 c 128,-1,20
 231 1192 231 1192 311 1192 c 0,21,22
 389 1192 389 1192 445.5 1248.5 c 128,-1,23
 502 1305 502 1305 502 1382 c 0,12,13
EndSplineSet
EndChar

StartChar: paragraph
Encoding: 101 182 104
Width: 1280
Flags: W
LayerCount: 2
Fore
SplineSet
981 8 m 1,0,-1
 870 8 l 1,1,-1
 870 1432 l 1,2,-1
 664 1432 l 1,3,-1
 664 8 l 1,4,-1
 553 8 l 1,5,-1
 553 913 l 1,6,7
 408 918 408 918 309 991 c 0,8,9
 197 1073 197 1073 197 1212 c 0,10,11
 197 1372 197 1372 309 1452 c 0,12,13
 408 1522 408 1522 573 1522 c 2,14,-1
 981 1522 l 1,15,-1
 981 8 l 1,0,-1
EndSplineSet
EndChar

StartChar: periodcentered
Encoding: 102 183 105
Width: 934
Flags: W
LayerCount: 2
Fore
SplineSet
545 567 m 256,0,1
 545 532 545 532 519.5 507.5 c 128,-1,2
 494 483 494 483 459 483 c 256,3,4
 424 483 424 483 399.5 507.5 c 128,-1,5
 375 532 375 532 375 567 c 0,6,7
 375 604 375 604 400.5 633 c 128,-1,8
 426 662 426 662 461 662 c 0,9,10
 494 662 494 662 519.5 632 c 128,-1,11
 545 602 545 602 545 567 c 256,0,1
EndSplineSet
EndChar

StartChar: quoteleft
Encoding: 108 8216 106
Width: 500
Flags: W
LayerCount: 2
Fore
SplineSet
391 1221 m 1,0,1
 221 1153 221 1153 197 987 c 1,2,-1
 250 950 l 1,3,4
 303 948 303 948 337 906 c 128,-1,5
 371 864 371 864 371 811 c 0,6,7
 371 752 371 752 338 705 c 0,8,9
 301 651 301 651 244 651 c 0,10,11
 168 651 168 651 127 729 c 1,12,13
 92 793 92 793 92 874 c 0,14,15
 92 1014 92 1014 176 1129.5 c 128,-1,16
 260 1245 260 1245 391 1294 c 1,17,-1
 391 1221 l 1,0,1
EndSplineSet
EndChar

StartChar: quoteright
Encoding: 109 8217 107
Width: 602
Flags: W
LayerCount: 2
Fore
SplineSet
477 1067 m 0,0,1
 477 930 477 930 393 814 c 128,-1,2
 309 698 309 698 178 651 c 1,3,-1
 178 719 l 1,4,5
 350 795 350 795 373 958 c 1,6,-1
 317 993 l 1,7,8
 266 997 266 997 233.5 1038 c 128,-1,9
 201 1079 201 1079 201 1133 c 0,10,11
 201 1190 201 1190 235.5 1240 c 128,-1,12
 270 1290 270 1290 326 1290 c 0,13,14
 401 1290 401 1290 442 1212 c 1,15,16
 477 1149 477 1149 477 1067 c 0,0,1
EndSplineSet
EndChar

StartChar: quotedblleft
Encoding: 110 8220 108
Width: 1051
Flags: W
LayerCount: 2
Fore
SplineSet
944 1221 m 1,0,1
 774 1153 774 1153 750 987 c 1,2,-1
 803 950 l 1,3,4
 856 948 856 948 890 906 c 128,-1,5
 924 864 924 864 924 811 c 0,6,7
 924 752 924 752 891 705 c 0,8,9
 854 651 854 651 797 651 c 0,10,11
 721 651 721 651 680 729 c 1,12,13
 645 793 645 793 645 874 c 0,14,15
 645 1014 645 1014 729 1129.5 c 128,-1,16
 813 1245 813 1245 944 1294 c 1,17,-1
 944 1221 l 1,0,1
485 1223 m 1,18,19
 315 1147 315 1147 291 985 c 1,20,-1
 344 946 l 1,21,22
 397 944 397 944 431 903 c 128,-1,23
 465 862 465 862 465 809 c 0,24,25
 465 752 465 752 432 705 c 0,26,27
 395 651 395 651 340 651 c 0,28,29
 262 651 262 651 221 729 c 0,30,31
 188 791 188 791 188 874 c 0,32,33
 188 1012 188 1012 272 1127.5 c 128,-1,34
 356 1243 356 1243 485 1290 c 1,35,-1
 485 1223 l 1,18,19
EndSplineSet
EndChar

StartChar: quotedblright
Encoding: 111 8221 109
Width: 1051
Flags: W
LayerCount: 2
Fore
SplineSet
887 1047 m 0,0,1
 887 909 887 909 803 793.5 c 128,-1,2
 719 678 719 678 588 631 c 1,3,-1
 588 698 l 1,4,5
 760 774 760 774 782 938 c 1,6,-1
 727 973 l 1,7,8
 676 977 676 977 643 1018 c 128,-1,9
 610 1059 610 1059 610 1112 c 0,10,11
 610 1169 610 1169 645 1219.5 c 128,-1,12
 680 1270 680 1270 735 1270 c 0,13,14
 811 1270 811 1270 852 1192 c 1,15,16
 887 1128 887 1128 887 1047 c 0,0,1
428 1042 m 0,17,18
 428 905 428 905 344 787.5 c 128,-1,19
 260 670 260 670 131 623 c 1,20,-1
 131 696 l 1,21,22
 301 764 301 764 324 932 c 1,23,-1
 268 965 l 1,24,25
 217 969 217 969 185.5 1011 c 128,-1,26
 154 1053 154 1053 154 1106 c 0,27,28
 154 1163 154 1163 188.5 1213.5 c 128,-1,29
 223 1264 223 1264 279 1264 c 0,30,31
 354 1264 354 1264 395 1186 c 0,32,33
 428 1124 428 1124 428 1042 c 0,17,18
EndSplineSet
EndChar

StartChar: bullet
Encoding: 112 8226 110
Width: 1147
Flags: W
LayerCount: 2
Fore
SplineSet
887 541 m 0,0,1
 887 418 887 418 799 333 c 128,-1,2
 711 248 711 248 586 248 c 0,3,4
 467 248 467 248 383 334 c 128,-1,5
 299 420 299 420 299 539 c 0,6,7
 299 659 299 659 386 746.5 c 128,-1,8
 473 834 473 834 594 834 c 0,9,10
 711 834 711 834 799 745.5 c 128,-1,11
 887 657 887 657 887 541 c 0,0,1
EndSplineSet
EndChar

StartChar: H18543
Encoding: 114 9642 111
Width: 1147
Flags: W
LayerCount: 2
Fore
SplineSet
838 285 m 1,0,-1
 344 285 l 1,1,-1
 344 778 l 1,2,-1
 838 778 l 1,3,-1
 838 285 l 1,0,-1
EndSplineSet
EndChar

StartChar: ellipsis
Encoding: 113 8230 112
Width: 1178
Flags: W
LayerCount: 2
Fore
SplineSet
1094 84 m 256,0,1
 1094 41 1094 41 1065 9 c 128,-1,2
 1036 -23 1036 -23 993 -23 c 0,3,4
 952 -23 952 -23 924.5 10 c 128,-1,5
 897 43 897 43 897 84 c 0,6,7
 897 127 897 127 924.5 158.5 c 128,-1,8
 952 190 952 190 993 190 c 0,9,10
 1036 190 1036 190 1065 158.5 c 128,-1,11
 1094 127 1094 127 1094 84 c 256,0,1
711 84 m 0,12,13
 711 41 711 41 680 9 c 128,-1,14
 649 -23 649 -23 606 -23 c 0,15,16
 565 -23 565 -23 534.5 10 c 128,-1,17
 504 43 504 43 504 84 c 256,18,19
 504 125 504 125 534.5 160 c 128,-1,20
 565 195 565 195 606 195 c 0,21,22
 651 195 651 195 681 162 c 128,-1,23
 711 129 711 129 711 84 c 0,12,13
311 82 m 0,24,25
 311 41 311 41 281.5 8 c 128,-1,26
 252 -25 252 -25 211 -25 c 0,27,28
 168 -25 168 -25 138.5 7 c 128,-1,29
 109 39 109 39 109 82 c 256,30,31
 109 125 109 125 138.5 157.5 c 128,-1,32
 168 190 168 190 211 190 c 0,33,34
 252 190 252 190 281.5 157.5 c 128,-1,35
 311 125 311 125 311 82 c 0,24,25
EndSplineSet
EndChar

StartChar: afii57929
Encoding: 103 700 113
Width: 483
Flags: W
LayerCount: 2
Fore
SplineSet
395 1067 m 0,0,1
 395 930 395 930 311 814 c 128,-1,2
 227 698 227 698 96 651 c 1,3,-1
 96 719 l 1,4,5
 268 795 268 795 291 958 c 1,6,-1
 236 993 l 1,7,8
 184 997 184 997 151.5 1038 c 128,-1,9
 119 1079 119 1079 119 1133 c 0,10,11
 119 1190 119 1190 153.5 1240 c 128,-1,12
 188 1290 188 1290 244 1290 c 0,13,14
 319 1290 319 1290 360 1212 c 1,15,16
 395 1149 395 1149 395 1067 c 0,0,1
EndSplineSet
EndChar

StartChar: hyphentwo
Encoding: 105 8208 114
Width: 885
Flags: W
LayerCount: 2
Fore
SplineSet
721 434 m 1,0,-1
 164 434 l 1,1,-1
 164 606 l 1,2,-1
 721 606 l 1,3,-1
 721 434 l 1,0,-1
EndSplineSet
EndChar

StartChar: macronlowmod
Encoding: 104 717 115
Width: 872
Flags: W
LayerCount: 2
Fore
SplineSet
776 14 m 1,0,-1
 143 14 l 1,1,-1
 143 168 l 1,2,-1
 776 168 l 1,3,-1
 776 14 l 1,0,-1
EndSplineSet
EndChar

StartChar: uniA4D0
Encoding: 118 42192 116
Width: 999
Flags: W
LayerCount: 2
Fore
SplineSet
895 313 m 0,0,1
 895 137 895 137 782 63 c 1,2,3
 690 4 690 4 506 4 c 2,4,-1
 113 4 l 1,5,-1
 113 1087 l 1,6,-1
 477 1087 l 2,7,8
 627 1087 627 1087 723 1020 c 0,9,10
 834 942 834 942 834 799 c 0,11,12
 834 657 834 657 719 580 c 1,13,14
 895 481 895 481 895 313 c 0,0,1
684 788 m 0,15,16
 684 860 684 860 604 897 c 0,17,18
 543 926 543 926 463 926 c 2,19,-1
 272 926 l 1,20,-1
 272 643 l 1,21,-1
 465 643 l 2,22,23
 684 643 684 643 684 788 c 0,15,16
735 319 m 0,24,25
 735 483 735 483 465 483 c 2,26,-1
 272 483 l 1,27,-1
 272 162 l 1,28,-1
 485 162 l 2,29,30
 735 162 735 162 735 319 c 0,24,25
EndSplineSet
EndChar

StartChar: uniA4D1
Encoding: 119 42193 117
Width: 997
Flags: W
LayerCount: 2
Fore
SplineSet
891 768 m 256,0,1
 891 608 891 608 772 516 c 0,2,3
 664 432 664 432 500 432 c 2,4,-1
 293 432 l 1,5,-1
 293 4 l 1,6,-1
 133 4 l 1,7,-1
 131 1083 l 1,8,-1
 457 1083 l 2,9,10
 627 1083 627 1083 748 1012 c 0,11,12
 891 928 891 928 891 768 c 256,0,1
733 760 m 0,13,14
 733 844 733 844 659 887 c 1,15,16
 598 924 598 924 508 924 c 2,17,-1
 293 924 l 1,18,-1
 293 592 l 1,19,-1
 494 592 l 2,20,21
 588 592 588 592 653 629 c 0,22,23
 733 674 733 674 733 760 c 0,13,14
EndSplineSet
EndChar

StartChar: uniA4D2
Encoding: 120 42194 118
Width: 1020
Flags: W
LayerCount: 2
Fore
SplineSet
877 4 m 1,0,-1
 428 4 l 2,1,2
 291 4 291 4 193.5 94 c 128,-1,3
 96 184 96 184 96 319 c 0,4,5
 96 492 96 492 175 577 c 128,-1,6
 254 662 254 662 424 680 c 0,7,8
 479 686 479 686 717 686 c 1,9,-1
 717 1087 l 1,10,-1
 877 1087 l 1,11,-1
 877 4 l 1,0,-1
717 162 m 1,12,-1
 717 526 l 1,13,-1
 498 526 l 2,14,15
 397 526 397 526 334 479 c 0,16,17
 262 426 262 426 262 330 c 0,18,19
 262 162 262 162 502 162 c 2,20,-1
 717 162 l 1,12,-1
EndSplineSet
EndChar

StartChar: uniA4D3
Encoding: 121 42195 119
Width: 1038
Flags: W
LayerCount: 2
Fore
SplineSet
934 543 m 0,0,1
 934 295 934 295 809 154 c 1,2,3
 678 4 678 4 434 4 c 2,4,-1
 123 4 l 1,5,-1
 123 1087 l 1,6,-1
 418 1087 l 2,7,8
 662 1087 662 1087 801 936 c 1,9,10
 934 788 934 788 934 543 c 0,0,1
780 537 m 0,11,12
 780 717 780 717 687 822.5 c 128,-1,13
 594 928 594 928 416 928 c 2,14,-1
 281 928 l 1,15,-1
 281 162 l 1,16,-1
 418 162 l 2,17,18
 588 162 588 162 684 263.5 c 128,-1,19
 780 365 780 365 780 537 c 0,11,12
EndSplineSet
EndChar

StartChar: uniA4D4
Encoding: 122 42196 120
Width: 1085
Flags: W
LayerCount: 2
Fore
SplineSet
967 926 m 1,0,-1
 614 926 l 1,1,-1
 614 4 l 1,2,-1
 457 4 l 1,3,-1
 457 926 l 1,4,-1
 111 926 l 1,5,-1
 111 1087 l 1,6,-1
 967 1087 l 1,7,-1
 967 926 l 1,0,-1
EndSplineSet
EndChar

StartChar: uniA4D5
Encoding: 123 42197 121
Width: 1075
Flags: W
LayerCount: 2
Fore
SplineSet
952 4 m 1,0,-1
 96 4 l 1,1,-1
 96 164 l 1,2,-1
 449 164 l 1,3,-1
 449 1087 l 1,4,-1
 608 1087 l 1,5,-1
 608 164 l 1,6,-1
 952 164 l 1,7,-1
 952 4 l 1,0,-1
EndSplineSet
EndChar

StartChar: uniA4D6
Encoding: 124 42198 122
Width: 1141
Flags: W
LayerCount: 2
Fore
SplineSet
1032 154 m 1,0,1
 821 -18 821 -18 598 -18 c 0,2,3
 362 -18 362 -18 231 150 c 1,4,5
 111 301 111 301 111 543 c 0,6,7
 111 786 111 786 221 934 c 0,8,9
 344 1098 344 1098 580 1098 c 0,10,11
 907 1098 907 1098 1022 836 c 1,12,-1
 860 793 l 1,13,14
 776 944 776 944 594 944 c 0,15,16
 438 944 438 944 350 821 c 0,17,18
 272 713 272 713 272 551 c 0,19,20
 272 375 272 375 350 264 c 0,21,22
 438 137 438 137 606 137 c 0,23,24
 739 137 739 137 872 240 c 1,25,-1
 872 408 l 1,26,-1
 580 408 l 1,27,-1
 580 567 l 1,28,-1
 1032 567 l 1,29,-1
 1032 154 l 1,0,1
EndSplineSet
EndChar

StartChar: uniA4D7
Encoding: 125 42199 123
Width: 1053
Flags: W
LayerCount: 2
Fore
SplineSet
965 4 m 1,0,-1
 762 4 l 1,1,-1
 436 500 l 1,2,-1
 301 336 l 1,3,4
 301 115 301 115 303 4 c 1,5,-1
 143 4 l 1,6,-1
 143 1087 l 1,7,-1
 303 1087 l 1,8,-1
 303 578 l 1,9,-1
 741 1087 l 1,10,-1
 946 1087 l 1,11,-1
 547 616 l 1,12,-1
 965 4 l 1,0,-1
EndSplineSet
EndChar

StartChar: uniA4D8
Encoding: 126 42200 124
Width: 1038
Flags: W
LayerCount: 2
Fore
SplineSet
893 4 m 1,0,-1
 733 4 l 1,1,-1
 733 504 l 1,2,-1
 303 4 l 1,3,-1
 78 4 l 1,4,-1
 498 481 l 1,5,-1
 80 1087 l 1,6,-1
 281 1087 l 1,7,-1
 610 598 l 1,8,9
 670 653 670 653 733 709 c 1,10,-1
 733 1087 l 1,11,-1
 893 1087 l 1,12,-1
 893 4 l 1,0,-1
EndSplineSet
EndChar

StartChar: uniA4D9
Encoding: 127 42201 125
Width: 915
Flags: W
LayerCount: 2
Fore
SplineSet
772 350 m 2,0,1
 772 201 772 201 676 94 c 1,2,3
 578 -18 578 -18 430 -18 c 0,4,5
 285 -18 285 -18 186.5 77 c 128,-1,6
 88 172 88 172 82 317 c 2,7,-1
 80 365 l 1,8,-1
 242 365 l 1,9,10
 240 348 240 348 240 319 c 0,11,12
 240 242 240 242 293 189.5 c 128,-1,13
 346 137 346 137 424 137 c 0,14,15
 506 137 506 137 559 206.5 c 128,-1,16
 612 276 612 276 612 360 c 2,17,-1
 612 1087 l 1,18,-1
 772 1087 l 1,19,-1
 772 350 l 2,0,1
EndSplineSet
EndChar

StartChar: uniA4DA
Encoding: 128 42202 126
Width: 1053
Flags: W
LayerCount: 2
Fore
SplineSet
958 309 m 1,0,1
 913 164 913 164 813 78 c 0,2,3
 707 -14 707 -14 561 -14 c 0,4,5
 324 -14 324 -14 209 156 c 0,6,7
 111 301 111 301 111 549 c 0,8,9
 111 782 111 782 215 932 c 0,10,11
 334 1104 334 1104 557 1104 c 0,12,13
 690 1104 690 1104 800.5 1025 c 128,-1,14
 911 946 911 946 950 821 c 1,15,-1
 795 786 l 1,16,17
 731 948 731 948 565 948 c 0,18,19
 270 948 270 948 270 539 c 0,20,21
 270 377 270 377 328 272 c 0,22,23
 399 141 399 141 549 141 c 0,24,25
 641 141 641 141 708.5 199.5 c 128,-1,26
 776 258 776 258 801 350 c 1,27,-1
 958 309 l 1,0,1
EndSplineSet
EndChar

StartChar: uniA4DB
Encoding: 129 42203 127
Width: 1075
Flags: W
LayerCount: 2
Fore
SplineSet
942 535 m 0,0,1
 942 324 942 324 834 164 c 0,2,3
 711 -18 711 -18 510 -18 c 0,4,5
 360 -18 360 -18 243.5 72 c 128,-1,6
 127 162 127 162 86 307 c 1,7,-1
 236 369 l 1,8,9
 256 268 256 268 335 204.5 c 128,-1,10
 414 141 414 141 516 141 c 0,11,12
 649 141 649 141 723 274 c 0,13,14
 784 383 784 383 784 526 c 0,15,16
 784 676 784 676 725 795 c 0,17,18
 651 942 651 942 518 942 c 0,19,20
 334 942 334 942 270 780 c 1,21,-1
 111 821 l 1,22,23
 147 954 147 954 264 1028 c 0,24,25
 373 1098 373 1098 516 1098 c 0,26,27
 715 1098 715 1098 838 909 c 1,28,29
 942 745 942 745 942 535 c 0,0,1
EndSplineSet
EndChar

StartChar: uniA4DC
Encoding: 130 42204 128
Width: 1057
Flags: W
LayerCount: 2
Fore
SplineSet
940 4 m 1,0,-1
 123 4 l 1,1,-1
 125 162 l 1,2,-1
 717 928 l 1,3,-1
 164 928 l 1,4,-1
 164 1087 l 1,5,-1
 928 1087 l 1,6,-1
 928 938 l 1,7,8
 629 553 629 553 332 164 c 1,9,-1
 940 164 l 1,10,-1
 940 4 l 1,0,-1
EndSplineSet
EndChar

StartChar: uniA4DD
Encoding: 131 42205 129
Width: 936
Flags: W
LayerCount: 2
Fore
SplineSet
819 928 m 1,0,-1
 293 928 l 1,1,-1
 293 625 l 1,2,-1
 764 625 l 1,3,-1
 764 463 l 1,4,-1
 293 463 l 1,5,-1
 293 4 l 1,6,-1
 133 4 l 1,7,-1
 133 1087 l 1,8,-1
 819 1087 l 1,9,-1
 819 928 l 1,0,-1
EndSplineSet
EndChar

StartChar: uniA4DE
Encoding: 132 42206 130
Width: 983
Flags: W
LayerCount: 2
Fore
SplineSet
840 4 m 1,0,-1
 154 4 l 1,1,-1
 154 160 l 1,2,-1
 678 160 l 1,3,-1
 678 479 l 1,4,-1
 209 479 l 1,5,-1
 209 639 l 1,6,-1
 678 639 l 1,7,-1
 678 1087 l 1,8,-1
 840 1087 l 1,9,-1
 840 4 l 1,0,-1
EndSplineSet
EndChar

StartChar: uniA4DF
Encoding: 133 42207 131
Width: 1204
Flags: W
LayerCount: 2
Fore
SplineSet
1063 4 m 1,0,-1
 901 4 l 1,1,-1
 901 799 l 1,2,3
 815 649 815 649 684 459 c 0,4,5
 659 422 659 422 604 422 c 0,6,7
 530 422 530 422 420 578 c 1,8,9
 352 684 352 684 285 791 c 1,10,-1
 285 4 l 1,11,-1
 127 4 l 1,12,-1
 127 1087 l 1,13,-1
 272 1087 l 1,14,-1
 594 612 l 1,15,16
 815 924 815 924 918 1087 c 1,17,-1
 1063 1087 l 1,18,-1
 1063 4 l 1,0,-1
EndSplineSet
EndChar

StartChar: uniA4E0
Encoding: 134 42208 132
Width: 1055
Flags: W
LayerCount: 2
Fore
SplineSet
911 4 m 1,0,-1
 774 4 l 1,1,-1
 287 778 l 1,2,-1
 287 4 l 1,3,-1
 129 4 l 1,4,-1
 129 1087 l 1,5,-1
 283 1087 l 1,6,-1
 752 340 l 1,7,-1
 752 1087 l 1,8,-1
 911 1087 l 1,9,-1
 911 4 l 1,0,-1
EndSplineSet
EndChar

StartChar: uniA4E1
Encoding: 135 42209 133
Width: 911
Flags: W
LayerCount: 2
Fore
SplineSet
795 4 m 1,0,-1
 129 4 l 1,1,-1
 129 1087 l 1,2,-1
 289 1087 l 1,3,-1
 289 164 l 1,4,-1
 795 164 l 1,5,-1
 795 4 l 1,0,-1
EndSplineSet
EndChar

StartChar: uniA4E2
Encoding: 136 42210 134
Width: 1036
Flags: W
LayerCount: 2
Fore
SplineSet
934 313 m 0,0,1
 934 141 934 141 805 53 c 0,2,3
 694 -23 694 -23 514 -23 c 0,4,5
 338 -23 338 -23 223 61 c 0,6,7
 98 152 98 152 84 322 c 1,8,-1
 246 332 l 1,9,10
 270 133 270 133 524 133 c 0,11,12
 618 133 618 133 688 172 c 0,13,14
 772 219 772 219 772 307 c 0,15,16
 772 406 772 406 582 479 c 1,17,18
 440 520 440 520 301 563 c 1,19,20
 135 643 135 643 135 821 c 0,21,22
 135 961 135 961 260 1040 c 1,23,24
 369 1106 369 1106 516 1106 c 0,25,26
 668 1106 668 1106 775.5 1030 c 128,-1,27
 883 954 883 954 913 809 c 1,28,-1
 752 795 l 1,29,30
 752 874 752 874 666 915 c 0,31,32
 598 948 598 948 510 948 c 0,33,34
 424 948 424 948 367 918 c 0,35,36
 293 879 293 879 293 801 c 0,37,38
 293 721 293 721 459 676 c 1,39,40
 522 657 522 657 686 608 c 1,41,42
 934 537 934 537 934 313 c 0,0,1
EndSplineSet
EndChar

StartChar: uniA4E3
Encoding: 137 42211 135
Width: 1040
Flags: W
LayerCount: 2
Fore
SplineSet
956 4 m 1,0,-1
 768 4 l 1,1,2
 721 121 721 121 653 248 c 0,3,4
 565 414 565 414 508 459 c 1,5,-1
 309 459 l 1,6,-1
 309 4 l 1,7,-1
 147 4 l 1,8,9
 150 391 150 391 150 1083 c 1,10,-1
 571 1083 l 2,11,12
 725 1083 725 1083 823 1010 c 0,13,14
 932 930 932 930 932 780 c 0,15,16
 932 674 932 674 865.5 583 c 128,-1,17
 799 492 799 492 696 471 c 1,18,19
 748 428 748 428 834 254 c 2,20,-1
 956 4 l 1,0,-1
774 776 m 0,21,22
 774 838 774 838 718 881 c 128,-1,23
 662 924 662 924 598 924 c 2,24,-1
 309 924 l 1,25,-1
 309 618 l 1,26,-1
 600 618 l 2,27,28
 672 618 672 618 723 662.5 c 128,-1,29
 774 707 774 707 774 776 c 0,21,22
EndSplineSet
EndChar

StartChar: uniA4E4
Encoding: 138 42212 136
Width: 1067
Flags: W
LayerCount: 2
Fore
SplineSet
924 4 m 1,0,-1
 500 4 l 2,1,2
 346 4 346 4 246 76 c 0,3,4
 133 156 133 156 133 303 c 0,5,6
 133 532 133 532 373 604 c 1,7,8
 287 752 287 752 92 1087 c 1,9,-1
 285 1087 l 1,10,-1
 543 614 l 1,11,-1
 764 614 l 1,12,-1
 764 1087 l 1,13,-1
 924 1087 l 1,14,-1
 924 4 l 1,0,-1
764 160 m 1,15,-1
 764 461 l 1,16,-1
 492 461 l 2,17,18
 416 461 416 461 358 424 c 1,19,20
 293 381 293 381 293 309 c 0,21,22
 293 236 293 236 358 195 c 0,23,24
 414 160 414 160 494 160 c 2,25,-1
 764 160 l 1,15,-1
EndSplineSet
EndChar

StartChar: uniA4E5
Encoding: 139 42213 137
Width: 1180
Flags: W
LayerCount: 2
Fore
SplineSet
1075 2 m 1,0,-1
 903 2 l 1,1,-1
 578 870 l 1,2,-1
 254 2 l 1,3,-1
 82 2 l 1,4,-1
 492 1085 l 1,5,-1
 664 1085 l 1,6,-1
 1075 2 l 1,0,-1
EndSplineSet
EndChar

StartChar: uniA4E6
Encoding: 140 42214 138
Width: 1200
Flags: W
LayerCount: 2
Fore
SplineSet
1098 1087 m 1,0,-1
 674 4 l 1,1,-1
 516 4 l 1,2,-1
 102 1087 l 1,3,-1
 279 1087 l 1,4,-1
 596 252 l 1,5,-1
 922 1087 l 1,6,-1
 1098 1087 l 1,0,-1
EndSplineSet
EndChar

StartChar: uniA4E7
Encoding: 141 42215 139
Width: 1040
Flags: W
LayerCount: 2
Fore
SplineSet
911 4 m 1,0,-1
 752 4 l 1,1,-1
 752 479 l 1,2,-1
 287 479 l 1,3,-1
 287 4 l 1,4,-1
 129 4 l 1,5,-1
 129 1087 l 1,6,-1
 287 1087 l 1,7,-1
 287 637 l 1,8,-1
 752 637 l 1,9,-1
 752 1087 l 1,10,-1
 911 1087 l 1,11,-1
 911 4 l 1,0,-1
EndSplineSet
EndChar

StartChar: uniA4E8
Encoding: 142 42216 140
Width: 1085
Flags: W
LayerCount: 2
Fore
SplineSet
1010 559 m 0,0,1
 1010 315 1010 315 907 164 c 1,2,3
 788 -14 788 -14 555 -14 c 0,4,5
 238 -14 238 -14 125 227 c 1,6,-1
 295 274 l 1,7,8
 397 143 397 143 528 143 c 0,9,10
 840 143 840 143 840 551 c 0,11,12
 840 707 840 707 774 815 c 1,13,14
 696 946 696 946 551 946 c 256,15,16
 406 946 406 946 279 852 c 1,17,-1
 279 684 l 1,18,-1
 532 684 l 1,19,-1
 532 526 l 1,20,-1
 115 526 l 1,21,-1
 115 936 l 1,22,23
 324 1106 324 1106 545 1106 c 256,24,25
 766 1106 766 1106 893 938 c 1,26,27
 1010 786 1010 786 1010 559 c 0,0,1
EndSplineSet
EndChar

StartChar: uniA4E9
Encoding: 143 42217 141
Width: 977
Flags: W
LayerCount: 2
Fore
SplineSet
848 729 m 1,0,-1
 692 729 l 1,1,2
 694 739 694 739 694 750 c 0,3,4
 694 831 694 831 641 887.5 c 128,-1,5
 588 944 588 944 506 944 c 256,6,7
 424 944 424 944 373 870 c 1,8,9
 326 805 326 805 326 721 c 2,10,-1
 326 4 l 1,11,-1
 158 4 l 1,12,-1
 158 731 l 2,13,14
 158 877 158 877 260 988.5 c 128,-1,15
 362 1100 362 1100 506 1100 c 0,16,17
 664 1100 664 1100 756 991 c 1,18,19
 842 891 842 891 848 729 c 1,0,-1
EndSplineSet
EndChar

StartChar: uniA4EA
Encoding: 144 42218 142
Width: 1456
Flags: W
LayerCount: 2
Fore
SplineSet
1352 1085 m 1,0,-1
 1118 4 l 1,1,-1
 928 4 l 1,2,-1
 731 698 l 1,3,-1
 528 4 l 1,4,-1
 340 4 l 1,5,-1
 100 1085 l 1,6,-1
 266 1085 l 1,7,-1
 440 291 l 1,8,-1
 635 911 l 2,9,10
 645 944 645 944 673.5 980 c 128,-1,11
 702 1016 702 1016 731 1016 c 0,12,13
 758 1016 758 1016 786.5 978 c 128,-1,14
 815 940 815 940 825 909 c 2,15,-1
 1016 295 l 1,16,-1
 1180 1085 l 1,17,-1
 1352 1085 l 1,0,-1
EndSplineSet
EndChar

StartChar: uniA4EB
Encoding: 145 42219 143
Width: 1116
Flags: W
LayerCount: 2
Fore
SplineSet
1024 4 m 1,0,-1
 827 4 l 1,1,2
 735 141 735 141 555 432 c 1,3,4
 428 236 428 236 270 4 c 1,5,-1
 72 4 l 1,6,-1
 449 563 l 1,7,-1
 117 1087 l 1,8,-1
 309 1087 l 1,9,-1
 557 686 l 1,10,11
 584 727 584 727 817 1087 c 1,12,-1
 1012 1087 l 1,13,-1
 664 563 l 1,14,-1
 1024 4 l 1,0,-1
EndSplineSet
EndChar

StartChar: uniA4EC
Encoding: 146 42220 144
Width: 1135
Flags: W
LayerCount: 2
Fore
SplineSet
1024 1087 m 1,0,-1
 637 459 l 1,1,-1
 637 4 l 1,2,-1
 479 4 l 1,3,-1
 479 459 l 1,4,-1
 94 1087 l 1,5,-1
 287 1087 l 1,6,-1
 559 635 l 1,7,8
 680 827 680 827 836 1087 c 1,9,-1
 1024 1087 l 1,0,-1
EndSplineSet
EndChar

StartChar: uniA4ED
Encoding: 147 42221 145
Width: 1040
Flags: W
LayerCount: 2
Fore
SplineSet
913 4 m 1,0,-1
 514 4 l 2,1,2
 162 4 162 4 162 307 c 0,3,4
 162 414 162 414 283 518 c 1,5,6
 115 602 115 602 115 768 c 0,7,8
 115 1087 115 1087 506 1087 c 2,9,-1
 913 1087 l 1,10,-1
 913 4 l 1,0,-1
750 606 m 1,11,-1
 750 928 l 1,12,-1
 506 928 l 2,13,14
 281 928 281 928 281 766 c 0,15,16
 281 606 281 606 528 606 c 2,17,-1
 750 606 l 1,11,-1
750 164 m 1,18,-1
 750 449 l 1,19,-1
 528 449 l 2,20,21
 324 449 324 449 324 311 c 0,22,23
 324 164 324 164 530 164 c 2,24,-1
 750 164 l 1,18,-1
EndSplineSet
EndChar

StartChar: uniA4EE
Encoding: 148 42222 146
Width: 1116
Flags: W
LayerCount: 2
Fore
SplineSet
1047 4 m 1,0,-1
 879 4 l 1,1,-1
 791 215 l 1,2,-1
 303 215 l 1,3,-1
 227 4 l 1,4,-1
 55 4 l 1,5,-1
 444 1087 l 1,6,-1
 621 1087 l 1,7,-1
 1047 4 l 1,0,-1
737 356 m 1,8,-1
 535 877 l 1,9,-1
 356 356 l 1,10,-1
 737 356 l 1,8,-1
EndSplineSet
EndChar

StartChar: uniA4EF
Encoding: 149 42223 147
Width: 1182
Flags: W
LayerCount: 2
Fore
SplineSet
1087 1090 m 1,0,-1
 670 4 l 1,1,-1
 483 4 l 1,2,-1
 90 1090 l 1,3,-1
 264 1090 l 1,4,-1
 338 881 l 1,5,-1
 834 881 l 1,6,-1
 909 1090 l 1,7,-1
 1087 1090 l 1,0,-1
776 737 m 1,8,-1
 393 737 l 1,9,10
 457 555 457 555 578 188 c 1,11,12
 625 309 625 309 776 737 c 1,8,-1
EndSplineSet
EndChar

StartChar: uniA4F0
Encoding: 150 42224 148
Width: 997
Flags: W
LayerCount: 2
Fore
SplineSet
877 4 m 1,0,-1
 139 4 l 1,1,-1
 139 1087 l 1,2,-1
 856 1087 l 1,3,-1
 856 926 l 1,4,-1
 301 926 l 1,5,-1
 301 635 l 1,6,-1
 774 635 l 1,7,-1
 774 475 l 1,8,-1
 301 475 l 1,9,-1
 301 164 l 1,10,-1
 877 164 l 1,11,-1
 877 4 l 1,0,-1
EndSplineSet
EndChar

StartChar: uniA4F1
Encoding: 151 42225 149
Width: 991
Flags: W
LayerCount: 2
Fore
SplineSet
856 4 m 1,0,-1
 127 4 l 1,1,-1
 127 160 l 1,2,-1
 692 160 l 1,3,-1
 692 483 l 1,4,-1
 236 483 l 1,5,-1
 236 643 l 1,6,-1
 692 643 l 1,7,-1
 692 928 l 1,8,-1
 150 928 l 1,9,-1
 150 1087 l 1,10,-1
 856 1087 l 1,11,-1
 856 4 l 1,0,-1
EndSplineSet
EndChar

StartChar: uniA4F2
Encoding: 152 42226 150
Width: 481
Flags: W
LayerCount: 2
Fore
SplineSet
322 4 m 1,0,-1
 162 4 l 1,1,-1
 162 1087 l 1,2,-1
 322 1087 l 1,3,-1
 322 4 l 1,0,-1
EndSplineSet
EndChar

StartChar: uniA4F3
Encoding: 153 42227 151
Width: 1122
Flags: W
LayerCount: 2
Fore
SplineSet
1030 535 m 0,0,1
 1030 317 1030 317 911 158 c 1,2,3
 780 -20 780 -20 571 -20 c 256,4,5
 362 -20 362 -20 231 156 c 1,6,7
 111 315 111 315 111 530 c 0,8,9
 111 756 111 756 227 918 c 0,10,11
 356 1100 356 1100 573 1100 c 0,12,13
 784 1100 784 1100 913 918 c 0,14,15
 1030 754 1030 754 1030 535 c 0,0,1
868 547 m 0,16,17
 868 696 868 696 797 809 c 1,18,19
 715 942 715 942 573 942 c 0,20,21
 432 942 432 942 348 811 c 1,22,23
 274 698 274 698 274 549 c 0,24,25
 274 393 274 393 344 279 c 1,26,27
 426 141 426 141 571 141 c 0,28,29
 717 141 717 141 799 276 c 0,30,31
 868 391 868 391 868 547 c 0,16,17
EndSplineSet
EndChar

StartChar: uniA4F4
Encoding: 154 42228 152
Width: 1075
Flags: W
LayerCount: 2
Fore
SplineSet
963 438 m 2,0,1
 963 252 963 252 848 119 c 0,2,3
 729 -20 729 -20 545 -20 c 0,4,5
 356 -20 356 -20 238 117 c 1,6,7
 123 248 123 248 123 438 c 2,8,-1
 123 1090 l 1,9,-1
 283 1090 l 1,10,-1
 283 434 l 2,11,12
 283 322 283 322 354 233 c 0,13,14
 430 137 430 137 541 137 c 0,15,16
 651 137 651 137 729 233 c 0,17,18
 803 324 803 324 803 438 c 2,19,-1
 803 1090 l 1,20,-1
 963 1090 l 1,21,-1
 963 438 l 2,0,1
EndSplineSet
EndChar

StartChar: uniA4F5
Encoding: 155 42229 153
Width: 1108
Flags: W
LayerCount: 2
Fore
SplineSet
993 4 m 1,0,-1
 834 4 l 1,1,-1
 834 643 l 2,2,3
 834 762 834 762 758 853 c 128,-1,4
 682 944 682 944 567 944 c 0,5,6
 453 944 453 944 379 848 c 1,7,8
 311 762 311 762 311 643 c 2,9,-1
 311 4 l 1,10,-1
 152 4 l 1,11,-1
 152 643 l 2,12,13
 152 840 152 840 260 969 c 0,14,15
 375 1106 375 1106 567 1106 c 0,16,17
 760 1106 760 1106 876.5 972 c 128,-1,18
 993 838 993 838 993 643 c 2,19,-1
 993 4 l 1,0,-1
EndSplineSet
EndChar

StartChar: uniA4F6
Encoding: 156 42230 154
Width: 922
Flags: W
LayerCount: 2
Fore
SplineSet
795 4 m 1,0,-1
 633 4 l 1,1,-1
 633 930 l 1,2,-1
 119 930 l 1,3,-1
 119 1087 l 1,4,-1
 795 1087 l 1,5,-1
 795 4 l 1,0,-1
EndSplineSet
EndChar

StartChar: uniA4F7
Encoding: 157 42231 155
Width: 1047
Flags: W
LayerCount: 2
Fore
SplineSet
928 4 m 1,0,-1
 557 4 l 2,1,2
 352 4 352 4 227 178 c 0,3,4
 115 334 115 334 115 547 c 0,5,6
 115 768 115 768 231 920 c 0,7,8
 358 1087 358 1087 573 1087 c 2,9,-1
 928 1087 l 1,10,-1
 928 4 l 1,0,-1
768 156 m 1,11,-1
 768 928 l 1,12,-1
 575 928 l 2,13,14
 438 928 438 928 352 803 c 1,15,16
 274 692 274 692 274 549 c 0,17,18
 274 403 274 403 348 289 c 1,19,20
 432 156 432 156 571 156 c 2,21,-1
 768 156 l 1,11,-1
EndSplineSet
EndChar

StartChar: uniA4F8
Encoding: 158 42232 156
Width: 506
Flags: W
LayerCount: 2
Fore
SplineSet
444 121 m 0,0,1
 444 61 444 61 400 18 c 128,-1,2
 356 -25 356 -25 297 -25 c 0,3,4
 236 -25 236 -25 190.5 17 c 128,-1,5
 145 59 145 59 145 121 c 0,6,7
 145 182 145 182 190.5 224 c 128,-1,8
 236 266 236 266 297 266 c 0,9,10
 356 266 356 266 400 223 c 128,-1,11
 444 180 444 180 444 121 c 0,0,1
EndSplineSet
EndChar

StartChar: uniA4F9
Encoding: 159 42233 157
Width: 526
Flags: W
LayerCount: 2
Fore
SplineSet
457 59 m 0,0,1
 457 -82 457 -82 371 -203 c 128,-1,2
 285 -324 285 -324 152 -375 c 1,3,-1
 143 -287 l 1,4,5
 334 -178 334 -178 334 -29 c 0,6,7
 334 6 334 6 293 6 c 0,8,9
 287 6 287 6 275.5 3 c 128,-1,10
 264 0 264 0 258 0 c 0,11,12
 211 0 211 0 182.5 41 c 128,-1,13
 154 82 154 82 154 131 c 0,14,15
 154 195 154 195 193.5 240 c 128,-1,16
 233 285 233 285 295 285 c 0,17,18
 457 285 457 285 457 59 c 0,0,1
EndSplineSet
EndChar

StartChar: uniA4FA
Encoding: 160 42234 158
Width: 961
Flags: W
LayerCount: 2
Fore
SplineSet
899 123 m 0,0,1
 899 61 899 61 858 17 c 128,-1,2
 817 -27 817 -27 756 -27 c 0,3,4
 694 -27 694 -27 657.5 19.5 c 128,-1,5
 621 66 621 66 621 129 c 0,6,7
 621 188 621 188 659.5 233.5 c 128,-1,8
 698 279 698 279 756 279 c 0,9,10
 817 279 817 279 858 232.5 c 128,-1,11
 899 186 899 186 899 123 c 0,0,1
422 129 m 0,12,13
 422 66 422 66 384 19.5 c 128,-1,14
 346 -27 346 -27 285 -27 c 0,15,16
 225 -27 225 -27 186 17 c 128,-1,17
 147 61 147 61 147 121 c 0,18,19
 147 184 147 184 186 231.5 c 128,-1,20
 225 279 225 279 287 279 c 0,21,22
 344 279 344 279 383 233.5 c 128,-1,23
 422 188 422 188 422 129 c 0,12,13
EndSplineSet
EndChar

StartChar: uniA4FB
Encoding: 161 42235 159
Width: 981
Flags: W
LayerCount: 2
Fore
SplineSet
918 59 m 0,0,1
 918 -82 918 -82 831.5 -203 c 128,-1,2
 745 -324 745 -324 612 -375 c 1,3,-1
 604 -287 l 1,4,5
 795 -178 795 -178 795 -29 c 0,6,7
 795 6 795 6 754 6 c 0,8,9
 748 6 748 6 736.5 3 c 128,-1,10
 725 0 725 0 719 0 c 0,11,12
 672 0 672 0 643 41 c 128,-1,13
 614 82 614 82 614 131 c 0,14,15
 614 195 614 195 654 240 c 128,-1,16
 694 285 694 285 756 285 c 0,17,18
 918 285 918 285 918 59 c 0,0,1
428 143 m 0,19,20
 428 82 428 82 385 34 c 128,-1,21
 342 -14 342 -14 270 -14 c 0,22,23
 211 -14 211 -14 173 35 c 128,-1,24
 135 84 135 84 135 143 c 0,25,26
 135 203 135 203 174 251 c 128,-1,27
 213 299 213 299 270 299 c 0,28,29
 340 299 340 299 384 251 c 128,-1,30
 428 203 428 203 428 143 c 0,19,20
EndSplineSet
EndChar

StartChar: uniA4FC
Encoding: 162 42236 160
Width: 559
Flags: W
LayerCount: 2
Fore
SplineSet
446 702 m 0,0,1
 446 641 446 641 402 598 c 128,-1,2
 358 555 358 555 297 555 c 0,3,4
 233 555 233 555 192.5 597 c 128,-1,5
 152 639 152 639 152 702 c 0,6,7
 152 762 152 762 195 806 c 128,-1,8
 238 850 238 850 297 850 c 0,9,10
 358 850 358 850 402 807 c 128,-1,11
 446 764 446 764 446 702 c 0,0,1
457 59 m 0,12,13
 457 -82 457 -82 371 -203 c 128,-1,14
 285 -324 285 -324 152 -375 c 1,15,-1
 143 -287 l 1,16,17
 334 -178 334 -178 334 -29 c 0,18,19
 334 6 334 6 293 6 c 0,20,21
 287 6 287 6 275.5 3 c 128,-1,22
 264 0 264 0 258 0 c 0,23,24
 211 0 211 0 182.5 41 c 128,-1,25
 154 82 154 82 154 131 c 0,26,27
 154 195 154 195 193.5 240 c 128,-1,28
 233 285 233 285 295 285 c 0,29,30
 457 285 457 285 457 59 c 0,12,13
EndSplineSet
EndChar

StartChar: uniA4FD
Encoding: 163 42237 161
Width: 569
Flags: W
LayerCount: 2
Fore
SplineSet
451 694 m 0,0,1
 451 631 451 631 404.5 590 c 128,-1,2
 358 549 358 549 295 549 c 0,3,4
 236 549 236 549 194 592 c 128,-1,5
 152 635 152 635 152 694 c 0,6,7
 152 754 152 754 198 797 c 128,-1,8
 244 840 244 840 303 840 c 0,9,10
 358 840 358 840 404.5 795 c 128,-1,11
 451 750 451 750 451 694 c 0,0,1
451 141 m 0,12,13
 451 78 451 78 404.5 37 c 128,-1,14
 358 -4 358 -4 295 -4 c 0,15,16
 236 -4 236 -4 194 39 c 128,-1,17
 152 82 152 82 152 141 c 0,18,19
 152 201 152 201 198 244 c 128,-1,20
 244 287 244 287 303 287 c 0,21,22
 358 287 358 287 404.5 242 c 128,-1,23
 451 197 451 197 451 141 c 0,12,13
EndSplineSet
EndChar

StartChar: uniA4FE
Encoding: 164 42238 162
Width: 1186
Flags: W
LayerCount: 2
Fore
SplineSet
1100 127 m 0,0,1
 1100 63 1100 63 1059 19 c 128,-1,2
 1018 -25 1018 -25 954 -25 c 0,3,4
 891 -25 891 -25 849 17 c 128,-1,5
 807 59 807 59 807 123 c 0,6,7
 807 186 807 186 849 228 c 128,-1,8
 891 270 891 270 954 270 c 0,9,10
 1014 270 1014 270 1057 228 c 128,-1,11
 1100 186 1100 186 1100 127 c 0,0,1
743 438 m 1,12,-1
 201 438 l 1,13,-1
 201 594 l 1,14,-1
 743 594 l 1,15,-1
 743 438 l 1,12,-1
EndSplineSet
EndChar

StartChar: uniA4FF
Encoding: 165 42239 163
Width: 1008
Flags: W
LayerCount: 2
Fore
SplineSet
827 637 m 1,0,-1
 115 637 l 1,1,-1
 115 764 l 1,2,-1
 827 764 l 1,3,-1
 827 637 l 1,0,-1
827 283 m 1,4,-1
 115 283 l 1,5,-1
 115 410 l 1,6,-1
 827 410 l 1,7,-1
 827 283 l 1,4,-1
EndSplineSet
EndChar

StartChar: endash
Encoding: 106 8211 164
Width: 1280
Flags: W
LayerCount: 2
Fore
SplineSet
1075 567 m 1,0,-1
 205 567 l 1,1,-1
 205 666 l 1,2,-1
 1075 666 l 1,3,-1
 1075 567 l 1,0,-1
EndSplineSet
EndChar

StartChar: emdash
Encoding: 107 8212 165
Width: 1280
Flags: W
LayerCount: 2
Fore
SplineSet
1280 567 m 1,0,-1
 0 567 l 1,1,-1
 0 666 l 1,2,-1
 1280 666 l 1,3,-1
 1280 567 l 1,0,-1
EndSplineSet
EndChar

StartChar: blackstar
Encoding: 115 9733 166
Width: 1626
Flags: W
LayerCount: 2
Fore
SplineSet
1354 797 m 1,0,-1
 1022 555 l 1,1,-1
 1149 166 l 1,2,-1
 815 406 l 1,3,-1
 483 166 l 1,4,-1
 610 555 l 1,5,-1
 279 797 l 1,6,-1
 690 797 l 1,7,-1
 815 1188 l 1,8,-1
 944 797 l 1,9,-1
 1354 797 l 1,0,-1
EndSplineSet
EndChar

StartChar: dblanglebracketleft
Encoding: 116 12298 167
Width: 1100
Flags: W
LayerCount: 2
Fore
SplineSet
932 -15 m 1,0,1
 844 158 844 158 758.5 329 c 128,-1,2
 673 500 673 500 585 674 c 1,3,-1
 932 1365 l 1,4,5
 949 1356 949 1356 965.5 1348 c 128,-1,6
 982 1340 982 1340 999 1332 c 1,7,-1
 669 674 l 1,8,-1
 999 17 l 1,9,-1
 932 -15 l 1,0,1
637 -15 m 1,10,11
 549 158 549 158 463.5 329 c 128,-1,12
 378 500 378 500 290 674 c 1,13,-1
 637 1365 l 1,14,15
 654 1356 654 1356 670.5 1348 c 128,-1,16
 687 1340 687 1340 704 1332 c 1,17,-1
 374 674 l 1,18,-1
 704 17 l 1,19,-1
 637 -15 l 1,10,11
EndSplineSet
EndChar

StartChar: dblanglebracketright
Encoding: 117 12299 168
Width: 1100
Flags: W
LayerCount: 2
Fore
SplineSet
158 -15 m 1,0,1
 141 -7 141 -7 124 0.5 c 128,-1,2
 107 8 107 8 90 16 c 1,3,-1
 420 674 l 1,4,-1
 90 1333 l 1,5,6
 107 1341 107 1341 124 1349 c 128,-1,7
 141 1357 141 1357 158 1365 c 1,8,-1
 505 674 l 1,9,10
 417 500 417 500 331.5 329 c 128,-1,11
 246 158 246 158 158 -15 c 1,0,1
454 -15 m 1,12,13
 437 -7 437 -7 419.5 0.5 c 128,-1,14
 402 8 402 8 385 16 c 1,15,-1
 715 674 l 1,16,-1
 385 1333 l 1,17,18
 402 1341 402 1341 419.5 1349 c 128,-1,19
 437 1357 437 1357 454 1365 c 1,20,-1
 800 674 l 1,21,-1
 454 -15 l 1,12,13
EndSplineSet
EndChar

StartChar: uni02D7
Encoding: 169 727 169
Width: 885
Flags: W
LayerCount: 2
Fore
SplineSet
721 434 m 1,0,-1
 164 434 l 1,1,-1
 164 606 l 1,2,-1
 721 606 l 1,3,-1
 721 434 l 1,0,-1
EndSplineSet
EndChar
